<?xml version="1.0" encoding="utf-8"?>
<svg xmlns="http://www.w3.org/2000/svg" width="168" height="121" viewBox="0 0 168 121" fill="none">
<g clip-path="url(#clip0_16024_189738)">
<path d="M37.2062 28.1311C96.2741 -9.26427 177.627 13.1579 211.376 77.257C245.125 141.356 206.881 168.31 147.813 205.705C88.7449 243.101 44.976 189.147 11.2268 125.048C5.72721 114.602 -21.8616 65.5265 37.2062 28.1311Z" fill="#F5F9FF"/>
<g clip-path="url(#clip1_16024_189738)">
<path d="M85.8271 21.5424C88.1501 21.5424 90.0332 19.6528 90.0332 17.3217C90.0332 14.9907 88.1501 13.1011 85.8271 13.1011C83.5042 13.1011 81.6211 14.9907 81.6211 17.3217C81.6211 19.6528 83.5042 21.5424 85.8271 21.5424Z" fill="#25303B"/>
<path d="M51.4502 295.192C39.2667 298.977 28.4746 293.644 28.4746 293.644C32.6356 231.728 38.3576 108.942 38.2225 102.28C38.2331 102.81 41.5486 90.1369 42.8101 92.3683L67.5535 97.0038C69.4405 100.342 75.6873 85.9429 73.9858 114.807C73.1774 128.522 70.6782 146.809 69.1437 170.593C66.5331 211.068 51.4475 295.189 51.4475 295.189L51.4502 295.192Z" fill="#595957"/>
<path d="M70.8628 33.0653C79.5149 33.0501 86.5173 26.4342 86.5031 18.2881C86.4889 10.1421 79.4636 3.55067 70.8115 3.56582C62.1594 3.58098 55.157 10.1969 55.1712 18.343C55.1853 26.489 62.2107 33.0804 70.8628 33.0653Z" fill="#25303B"/>
<path d="M70.8929 35.1509C75.3056 36.1509 78.7828 38.8609 78.6768 41.212L78.0222 55.4325C77.9135 57.7808 74.2561 58.8712 69.846 57.8686C65.4412 56.8739 61.9587 54.1586 62.07 51.8102L62.7193 37.587C62.8306 35.2413 66.4854 34.1509 70.8929 35.1509Z" fill="#B5674E"/>
<path d="M69.9042 45.5044C63.5514 44.2677 59.5706 37.2093 61.0124 29.7307L63.0505 19.1724C63.501 16.8347 64.426 14.731 65.6849 12.9863L85.3767 16.8161C85.5728 17.7815 84.852 21.9303 84.3776 25.2707C83.707 29.9993 83.1902 34.7546 82.4958 38.0285C80.4021 47.8927 70.156 45.5549 70.156 45.5549" fill="#B5674E"/>
<path d="M59.7085 24.3214C57.628 23.9172 55.6164 25.2815 55.2135 27.3693C54.808 29.4543 56.1703 31.4703 58.2508 31.8745L64.373 33.0633L65.6054 25.4704L59.7085 24.3214Z" fill="#B5674E"/>
<path d="M59.6211 25.7684C59.6211 25.7684 56.7932 25.303 56.5944 27.7444C56.3718 30.4491 59.2209 30.6513 59.2209 30.6513" stroke="#AB4D33" stroke-width="2" stroke-miterlimit="10" stroke-linecap="round"/>
<path d="M67.3573 18.7443C67.3573 18.7443 66.8458 26.7335 63.1512 29.2149C63.1512 29.2149 61.9056 21.7921 56.9707 21.8001L60.6626 17.4624L67.3573 18.7443Z" fill="#25303B"/>
<path d="M78.605 44.2119C78.605 44.2119 74.5898 46.9752 68.1973 44.9539C68.1973 44.9539 72.2787 47.9991 78.4593 47.3847L78.605 44.2119Z" fill="#AB4D33"/>
<path d="M33.0938 73.2993C33.0938 73.2993 31.4029 96.6686 33.0938 115.833C33.9631 125.7 54.2724 153.067 54.2724 153.067L60.3655 148.992C60.3655 148.992 60.127 147.881 59.6552 146.006C57.9378 139.181 53.1408 122.253 45.5715 112.022L48.182 75.6317L33.0964 73.302L33.0938 73.2993Z" fill="#F1D2C5"/>
<path d="M54.9695 128.934L46.4699 110.445L48.3543 78.5574L47.4002 77.9856C46.8065 69.6719 44.7684 58.087 38.1055 55.8955C38.1055 55.8955 32.9666 59.5603 31.5169 73.0894C29.7226 82.5653 29.2376 102.392 29.1104 111.248C29.068 114.129 29.9373 118.065 31.4347 120.522C31.4347 120.522 50.9198 154.761 50.8721 154.873C50.8244 154.984 63.2967 146.833 63.2967 146.833L54.9695 128.934Z" fill="#25303B"/>
<path d="M79.8321 49.6C79.8321 49.6 76.4237 53.7622 71.1788 53.8553C68.1521 53.9085 64.2959 51.467 60.6862 49.0176L56.0137 50.4404L38.1082 55.8925C38.1082 55.8925 48.7121 66.3098 43.2498 79.7032L33.9976 152.074C33.9976 152.074 35.8501 153.689 37.1885 154.404C43.6447 157.848 46.8569 153.915 61.5582 148.872C65.3799 147.561 69.4402 154 74.3724 155.747L76.6941 148.468L80.4655 155.165C91.4908 155.165 101.281 151.971 101.247 151.404L95.5511 56.7674L79.8373 49.6027L79.8321 49.6Z" fill="#25303B"/>
<path fill-rule="evenodd" clip-rule="evenodd" d="M47.652 95.6244C47.798 95.6361 47.9068 95.7643 47.8951 95.9107L46.9754 107.437C46.8201 109.378 47.167 111.324 47.9802 113.092L62.3767 144.394C62.438 144.528 62.38 144.686 62.2471 144.747C62.1142 144.809 61.9567 144.751 61.8954 144.617L47.4989 113.315C46.6477 111.465 46.2844 109.427 46.447 107.395C46.447 107.395 46.4471 107.395 46.447 107.395L47.3667 95.8683C47.3784 95.7219 47.5061 95.6127 47.652 95.6244Z" fill="#17162B"/>
<path fill-rule="evenodd" clip-rule="evenodd" d="M47.4755 70.1865C47.605 70.118 47.7653 70.1679 47.8336 70.2978L49.3823 73.2479L47.8624 86.72C47.846 86.866 47.7147 86.9709 47.5693 86.9544C47.4238 86.9379 47.3193 86.8061 47.3357 86.6602L48.8372 73.3509L47.3646 70.5457C47.2964 70.4158 47.346 70.2549 47.4755 70.1865Z" fill="#17162B"/>
<path d="M73.2091 77.7275L84.5233 51.5284L79.8322 49.6003L70.8874 52.6907L60.6837 49.0205L56.0112 50.4434L73.2091 77.7275Z" fill="#ECE6E1"/>
<path d="M61.6035 59.3871L70.8876 52.6904L80.752 59.9696L73.2092 77.7273L61.6035 59.3871Z" fill="#D7CFBB"/>
<path d="M67.9854 54.7303L70.8874 52.6904L73.718 54.7808L71.179 58.451L67.9854 54.7303Z" fill="#DB3332"/>
<path d="M70.8876 55.0205L68.8574 71.0335L73.2092 77.7276L76.1087 71.0335L70.8876 55.0205Z" fill="#DB3332"/>
<path fill-rule="evenodd" clip-rule="evenodd" d="M75.5205 108.32C75.6668 108.316 75.7889 108.431 75.7932 108.578L76.9553 148.505L74.6228 155.926C74.5788 156.066 74.4299 156.143 74.2904 156.099C74.1508 156.055 74.0733 155.906 74.1173 155.766L76.4229 148.431L75.2633 108.594C75.2591 108.447 75.3742 108.324 75.5205 108.32Z" fill="#17162B"/>
<path d="M56.0109 50.4431C56.0904 50.3633 50 52.4005 50 52.4005L59.8645 64.0439L56.6735 67.5385L73.2088 77.7272L56.0109 50.4404V50.4431Z" fill="#17162B"/>
<path d="M67.5507 20.3798C70.3552 20.3798 72.6287 18.0984 72.6287 15.2841C72.6287 12.4699 70.3552 10.1885 67.5507 10.1885C64.7462 10.1885 62.4727 12.4699 62.4727 15.2841C62.4727 18.0984 64.7462 20.3798 67.5507 20.3798Z" fill="#25303B"/>
<path d="M75.5281 17.4678C77.9315 17.4678 79.8799 15.5126 79.8799 13.1008C79.8799 10.689 77.9315 8.73389 75.5281 8.73389C73.1246 8.73389 71.1763 10.689 71.1763 13.1008C71.1763 15.5126 73.1246 17.4678 75.5281 17.4678Z" fill="#25303B"/>
<path d="M83.7971 18.63C86.7611 18.63 89.1639 16.2188 89.1639 13.2444C89.1639 10.2701 86.7611 7.85889 83.7971 7.85889C80.833 7.85889 78.4302 10.2701 78.4302 13.2444C78.4302 16.2188 80.833 18.63 83.7971 18.63Z" fill="#25303B"/>
<path d="M77.7041 13.101C80.9887 13.101 83.6514 10.4291 83.6514 7.13302C83.6514 3.837 80.9887 1.16504 77.7041 1.16504C74.4195 1.16504 71.7568 3.837 71.7568 7.13302C71.7568 10.4291 74.4195 13.101 77.7041 13.101Z" fill="#25303B"/>
<path d="M71.9024 11.936C75.187 11.936 77.8497 9.26401 77.8497 5.96799C77.8497 2.67196 75.187 0 71.9024 0C68.6178 0 65.9551 2.67196 65.9551 5.96799C65.9551 9.26401 68.6178 11.936 71.9024 11.936Z" fill="#25303B"/>
<path d="M64.3594 13.9731C67.644 13.9731 70.3067 11.3011 70.3067 8.0051C70.3067 4.70907 67.644 2.03711 64.3594 2.03711C61.0748 2.03711 58.4121 4.70907 58.4121 8.0051C58.4121 11.3011 61.0748 13.9731 64.3594 13.9731Z" fill="#25303B"/>
<path d="M59.7188 17.1752C63.0034 17.1752 65.6661 14.5033 65.6661 11.2072C65.6661 7.91122 63.0034 5.23926 59.7188 5.23926C56.4342 5.23926 53.7715 7.91122 53.7715 11.2072C53.7715 14.5033 56.4342 17.1752 59.7188 17.1752Z" fill="#25303B"/>
<path d="M83.121 13.2923C85.3371 13.2923 87.1335 11.4896 87.1335 9.26579C87.1335 7.042 85.3371 5.23926 83.121 5.23926C80.9049 5.23926 79.1084 7.042 79.1084 9.26579C79.1084 11.4896 80.9049 13.2923 83.121 13.2923Z" fill="#25303B"/>
<path d="M57.3975 19.7974C59.8814 19.7974 61.8951 17.7768 61.8951 15.2842C61.8951 12.7916 59.8814 10.771 57.3975 10.771C54.9135 10.771 52.8999 12.7916 52.8999 15.2842C52.8999 17.7768 54.9135 19.7974 57.3975 19.7974Z" fill="#25303B"/>
<path fill-rule="evenodd" clip-rule="evenodd" d="M70.2588 36.2402C70.34 36.1179 70.5045 36.0848 70.6263 36.1662C72.3706 37.3318 74.2274 37.6795 75.6549 37.7338C76.368 37.7609 76.971 37.7147 77.3946 37.6619C77.6063 37.6355 77.7729 37.6075 77.8855 37.5864C77.9419 37.5758 77.9847 37.5669 78.0129 37.5608C78.0271 37.5578 78.0375 37.5554 78.0442 37.5539L78.0514 37.5522L78.0528 37.5519L78.0528 37.5519L78.0529 37.5518C78.1952 37.5175 78.3383 37.6053 78.3726 37.748C78.4069 37.8908 78.3194 38.0345 78.1771 38.0689L78.115 37.8104C78.1771 38.0689 78.177 38.069 78.1769 38.069L78.1766 38.0691L78.1756 38.0693L78.1726 38.07L78.1623 38.0724C78.1535 38.0744 78.1408 38.0773 78.1245 38.0808C78.0917 38.0879 78.0442 38.0977 77.983 38.1092C77.8606 38.1322 77.6833 38.1619 77.46 38.1897C77.0134 38.2454 76.3814 38.2937 75.6348 38.2653C74.143 38.2086 72.182 37.8449 70.3325 36.6089C70.2107 36.5275 70.1777 36.3624 70.2588 36.2402Z" fill="#3C4C5C"/>
<path d="M80.2005 27.7415C80.8665 27.7415 81.4064 27.1997 81.4064 26.5314C81.4064 25.8631 80.8665 25.3213 80.2005 25.3213C79.5345 25.3213 78.9946 25.8631 78.9946 26.5314C78.9946 27.1997 79.5345 27.7415 80.2005 27.7415Z" fill="#3C4C5C"/>
<path fill-rule="evenodd" clip-rule="evenodd" d="M78.2285 23.388L78.1024 23.1541C77.9737 23.2239 77.9257 23.3853 77.9953 23.5145C78.0649 23.6436 78.2256 23.6918 78.3543 23.6221L78.3545 23.622L78.3553 23.6216L78.3607 23.6187C78.3658 23.616 78.374 23.6118 78.385 23.6062C78.4072 23.595 78.441 23.5783 78.4854 23.5576C78.5743 23.5162 78.7056 23.4587 78.8716 23.3963C79.2043 23.2713 79.673 23.128 80.2171 23.0538C81.304 22.9057 82.6739 23.0344 83.8797 24.118C83.9887 24.216 84.1563 24.2068 84.2539 24.0973C84.3516 23.9879 84.3423 23.8198 84.2333 23.7218C82.8763 22.5023 81.3321 22.3651 80.1457 22.5267C79.5532 22.6075 79.0454 22.763 78.6858 22.8982C78.5056 22.9659 78.3618 23.0287 78.2621 23.0752C78.2123 23.0984 78.1734 23.1176 78.1465 23.1312C78.133 23.138 78.1225 23.1434 78.1151 23.1473L78.1064 23.1519L78.1038 23.1533L78.103 23.1538L78.1027 23.1539C78.1025 23.154 78.1024 23.1541 78.2285 23.388Z" fill="#3C4C5C"/>
<path fill-rule="evenodd" clip-rule="evenodd" d="M78.0467 25.0729L77.9416 24.7825C77.8343 24.8692 77.7943 25.0695 77.8523 25.2299C77.9103 25.3902 78.0443 25.4499 78.1516 25.3634L78.1517 25.3633L78.1524 25.3628L78.1569 25.3592C78.1612 25.3559 78.168 25.3506 78.1772 25.3437C78.1957 25.3298 78.2238 25.3091 78.2609 25.2834C78.335 25.232 78.4445 25.1606 78.5829 25.0832C78.8602 24.928 79.2509 24.7501 79.7045 24.6581C80.6107 24.4742 81.7527 24.634 82.758 25.979C82.8489 26.1006 82.9885 26.0891 83.07 25.9533C83.1514 25.8175 83.1437 25.6088 83.0528 25.4872C81.9214 23.9735 80.6341 23.8032 79.6451 24.0039C79.1511 24.1041 78.7277 24.2972 78.4279 24.4649C78.2777 24.5489 78.1579 24.627 78.0748 24.6846C78.0332 24.7134 78.0008 24.7372 77.9783 24.7541C77.9671 24.7626 77.9584 24.7693 77.9522 24.7741L77.9449 24.7798L77.9428 24.7816L77.9421 24.7821L77.9418 24.7823C77.9417 24.7824 77.9416 24.7825 78.0467 25.0729Z" fill="#3C4C5C"/>
<path fill-rule="evenodd" clip-rule="evenodd" d="M70.4765 23.8624C69.9294 24.0121 69.3265 24.3639 68.7082 25.0618C68.611 25.1716 68.4435 25.1815 68.3341 25.0839C68.2247 24.9863 68.2148 24.8182 68.3121 24.7085C68.9871 23.9464 69.6753 23.5302 70.3372 23.3492C70.9984 23.1684 71.6132 23.2278 72.1334 23.3837C72.6518 23.539 73.0797 23.7909 73.3764 24.0016C73.5254 24.1074 73.6428 24.2039 73.7238 24.2748C73.7643 24.3102 73.7958 24.3393 73.8177 24.3601C73.8286 24.3705 73.8371 24.3788 73.8432 24.3847L73.8504 24.3919L73.8526 24.3941L73.8533 24.3948L73.8536 24.3951C73.8537 24.3953 73.8538 24.3954 73.6689 24.5781L73.8538 24.3954C73.9566 24.5 73.9553 24.6684 73.851 24.7715C73.7468 24.8744 73.5792 24.8732 73.4765 24.7689C73.4764 24.7688 73.4762 24.7686 73.4762 24.7686L73.4719 24.7644C73.4681 24.7606 73.4619 24.7546 73.4534 24.7465C73.4364 24.7303 73.4102 24.7061 73.3754 24.6757C73.3059 24.6148 73.2025 24.5297 73.0702 24.4358C72.8045 24.2471 72.4287 24.0272 71.9818 23.8933C71.5367 23.76 71.0243 23.7126 70.4765 23.8624Z" fill="#3C4C5C"/>
<path d="M71.285 26.9597C71.951 26.9597 72.4909 26.418 72.4909 25.7496C72.4909 25.0813 71.951 24.5396 71.285 24.5396C70.619 24.5396 70.0791 25.0813 70.0791 25.7496C70.0791 26.418 70.619 26.9597 71.285 26.9597Z" fill="#3C4C5C"/>
<path fill-rule="evenodd" clip-rule="evenodd" d="M74.2426 23.1592C74.2427 23.1592 74.2428 23.1593 74.0836 23.3719L74.2428 23.1593C74.3599 23.2475 74.3835 23.4143 74.2955 23.5317C74.2077 23.6491 74.0417 23.6728 73.9246 23.5847C73.9246 23.5847 73.9245 23.5846 73.9245 23.5846M73.9245 23.5846L73.9236 23.584L73.9184 23.5801C73.9135 23.5765 73.9056 23.5708 73.895 23.5633C73.8737 23.5481 73.8413 23.5256 73.7985 23.4971C73.7128 23.4401 73.5856 23.3597 73.423 23.2681C73.0973 23.0848 72.6322 22.8587 72.0755 22.6874C70.9622 22.3447 69.5016 22.2255 68.0448 23.0803C67.9185 23.1544 67.7562 23.1117 67.6823 22.9849C67.6084 22.8581 67.6509 22.6952 67.7773 22.6211C69.4028 21.6674 71.0285 21.8088 72.2309 22.1789C72.8321 22.3639 73.3323 22.6072 73.6823 22.8042C73.8575 22.9029 73.9959 22.9903 74.0912 23.0537C74.1389 23.0854 74.1759 23.1111 74.2014 23.1292C74.2141 23.1383 74.224 23.1454 74.231 23.1505L74.2392 23.1566L74.2416 23.1584L74.2423 23.1589L74.2426 23.1592" fill="#3C4C5C"/>
<path fill-rule="evenodd" clip-rule="evenodd" d="M77.3123 24.6204C77.458 24.6061 77.5876 24.7131 77.6019 24.8593L78.2432 31.4493C78.2432 31.4492 78.2432 31.4493 78.2432 31.4493C78.3038 32.0645 77.9032 32.6339 77.3015 32.7767C77.3013 32.7767 77.3011 32.7768 77.3009 32.7768L75.0306 33.3244C74.8883 33.3587 74.7452 33.2708 74.711 33.128C74.6768 32.9852 74.7644 32.8416 74.9068 32.8072L77.1781 32.2594L77.1792 32.2591C77.5206 32.1783 77.7505 31.8542 77.7157 31.5016L77.0743 24.911C77.0601 24.7648 77.1666 24.6347 77.3123 24.6204Z" fill="#3C4C5C"/>
<path d="M116.724 154C109.926 133.452 105.689 92.11 101.323 63.8817C100.526 58.7222 95.3337 55.2303 89.6886 56.0786C84.0593 56.927 80.1448 61.7966 80.9425 66.9561C82.1034 74.4613 90.6056 129.173 100.173 158.425C103.526 157.447 113.496 154.883 116.724 154Z" fill="#25303B"/>
<path fill-rule="evenodd" clip-rule="evenodd" d="M94.9936 71.9337C95.1391 71.9492 95.2445 72.0803 95.229 72.2263L94.556 78.5585L101.521 151.569L101.347 151.647C96.7594 153.714 91.5014 154.643 87.4008 155.056C85.3485 155.263 83.5818 155.342 82.3276 155.368C81.7004 155.381 81.2012 155.382 80.8583 155.379C80.6869 155.377 80.5545 155.375 80.4647 155.373C80.4198 155.372 80.3856 155.371 80.3625 155.371L80.3361 155.37L80.3293 155.37L80.3275 155.369L80.327 155.369C80.3268 155.369 80.3268 155.369 80.3357 155.104L80.327 155.369L80.1763 155.364L76.4568 148.597C76.3861 148.468 76.4327 148.306 76.5609 148.235C76.6891 148.164 76.8503 148.211 76.921 148.34L80.4944 154.842C80.5814 154.843 80.7052 154.846 80.8629 154.847C81.201 154.85 81.6949 154.85 82.3164 154.836C83.5595 154.81 85.312 154.732 87.3478 154.527C91.3713 154.121 96.4844 153.219 100.957 151.239L94.0233 78.5556L94.7019 72.1699C94.7174 72.0238 94.848 71.9181 94.9936 71.9337Z" fill="#17162B"/>
<path d="M84.5232 51.5283L89.7443 53.8554L82.4904 64.0441L85.9729 67.5387L73.209 77.7274L84.5232 51.5283Z" fill="#17162B"/>
</g>
</g>
<defs>
<clipPath id="clip0_16024_189738">
<rect width="224" height="224" fill="white"/>
</clipPath>
<clipPath id="clip1_16024_189738">
<rect width="121" height="320" fill="white" transform="translate(28)"/>
</clipPath>
</defs>
</svg>