<?xml version="1.0" encoding="utf-8"?>
<svg xmlns="http://www.w3.org/2000/svg" width="168" height="121" viewBox="0 0 168 121" fill="none">
<g clip-path="url(#clip0_16024_189806)">
<path d="M36.5418 27.887C94.5549 -9.50841 174.455 12.9138 207.601 77.0128C240.748 141.112 203.186 168.066 145.173 205.461C87.1602 242.856 44.1729 188.903 11.0263 124.804C5.62493 114.358 -21.4712 65.2824 36.5418 27.887Z" fill="#F5F9FF"/>
<path d="M92.4269 55.6389C92.4269 55.6389 115.846 87.4596 116 107.392C116.153 127.327 85.8628 128.172 84.7481 120.149C83.6334 112.127 92.4269 55.6362 92.4269 55.6362V55.6389Z" fill="#25303B"/>
<path d="M55.5796 134.259L49.2017 135.158C49.2463 134.715 50.0904 98.2874 50.6143 92.6672C50.9867 88.6546 51.6247 82.0798 52.3521 63.3394L61.7762 64.5871C61.59 69.4102 61.1456 86.3217 60.6069 92.1126C60.0781 97.7915 55.7608 132.452 55.5796 134.259Z" fill="#F4B082"/>
<path d="M60.6345 103.222C60.6345 103.222 60.0784 105.779 59.8748 109.226C59.6662 112.716 59.8177 117.121 61.2626 120.715H100.061C100.061 120.715 98.5146 118.048 97.9609 106.824L60.6369 103.219L60.6345 103.222Z" fill="#F4B082"/>
<path d="M72.7102 50.2747C76.2752 50.2747 79.1651 47.1711 79.1651 43.3427C79.1651 39.5142 76.2752 36.4106 72.7102 36.4106C69.1453 36.4106 66.2554 39.5142 66.2554 43.3427C66.2554 47.1711 69.1453 50.2747 72.7102 50.2747Z" fill="#47281F"/>
<path d="M81.7718 50.2748C85.9537 50.2748 89.3438 46.6341 89.3438 42.143C89.3438 37.652 85.9537 34.0112 81.7718 34.0112C77.5898 34.0112 74.1997 37.652 74.1997 42.143C74.1997 46.6341 77.5898 50.2748 81.7718 50.2748Z" fill="#47281F"/>
<path d="M96.2952 39.8772C99.8601 39.8772 102.75 36.7737 102.75 32.9452C102.75 29.1168 99.8601 26.0132 96.2952 26.0132C92.7303 26.0132 89.8403 29.1168 89.8403 32.9452C89.8403 36.7737 92.7303 39.8772 96.2952 39.8772Z" fill="#47281F"/>
<path d="M65.8827 46.0091C69.5162 46.0091 72.4617 42.8458 72.4617 38.9438C72.4617 35.0417 69.5162 31.8784 65.8827 31.8784C62.2492 31.8784 59.3037 35.0417 59.3037 38.9438C59.3037 42.8458 62.2492 46.0091 65.8827 46.0091Z" fill="#47281F"/>
<path d="M60.5452 40.1438C64.1101 40.1438 67.0001 37.0403 67.0001 33.2118C67.0001 29.3834 64.1101 26.2798 60.5452 26.2798C56.9803 26.2798 54.0903 29.3834 54.0903 33.2118C54.0903 37.0403 56.9803 40.1438 60.5452 40.1438Z" fill="#47281F"/>
<path d="M90.8333 46.0091C94.3982 46.0091 97.2881 42.9055 97.2881 39.077C97.2881 35.2486 94.3982 32.145 90.8333 32.145C87.2684 32.145 84.3784 35.2486 84.3784 39.077C84.3784 42.9055 87.2684 46.0091 90.8333 46.0091Z" fill="#47281F"/>
<path d="M91.9505 35.0776C96.1324 35.0776 99.5225 31.4368 99.5225 26.9458C99.5225 22.4547 96.1324 18.814 91.9505 18.814C87.7685 18.814 84.3784 22.4547 84.3784 26.9458C84.3784 31.4368 87.7685 35.0776 91.9505 35.0776Z" fill="#47281F"/>
<path d="M93.5465 33.3287C97.269 26.4792 94.2418 17.1377 86.785 12.4638C79.3282 7.78988 70.2655 9.55355 66.543 16.4031C62.8204 23.2526 65.8477 32.5941 73.3045 37.268C80.7613 41.9419 89.8239 40.1782 93.5465 33.3287Z" fill="#47281F"/>
<path d="M75.4163 25.0825C75.9828 19.304 72.813 14.2093 68.3363 13.7031C63.8597 13.197 59.7714 17.4711 59.2049 23.2495C58.6384 29.028 61.8082 34.1227 66.2849 34.6289C70.7616 35.135 74.8498 30.8609 75.4163 25.0825Z" fill="#47281F"/>
<path d="M76.7689 38.8555C73.6159 39.4474 71.1805 41.7536 71.317 44.0092L72.1611 57.668C72.3001 59.9262 74.9665 61.27 78.1169 60.6754C81.2649 60.0862 83.7029 57.7773 83.5614 55.5217L82.7222 41.8603C82.5807 39.6074 79.9193 38.261 76.7689 38.8529V38.8555Z" fill="#F4B082"/>
<path d="M77.9358 48.0939C83.7402 47.0861 87.6578 41.0339 86.6896 34.5658L85.3167 25.4341C85.0138 23.4132 84.269 21.5895 83.2089 20.0698L65.2172 23.1892C64.9963 24.0211 65.463 27.6071 65.7436 30.4945C66.1383 34.5791 66.394 38.6903 66.8756 41.5218C68.3305 50.0535 77.7049 48.1339 77.7049 48.1339" fill="#F4B082"/>
<path d="M88.316 31.2757C90.2177 30.9451 92.0052 32.3342 92.3131 34.3738C92.6209 36.4134 91.3275 38.3304 89.4258 38.661L83.8324 39.6288L82.9287 32.2115L88.316 31.2757Z" fill="#F4B082"/>
<path d="M82.5088 27.6128C82.5088 27.6128 82.7968 34.8461 85.3787 35.9872C85.3787 35.9872 85.9522 31.8013 89.1101 28.7539L82.5088 27.6128Z" fill="#47281F"/>
<path fill-rule="evenodd" clip-rule="evenodd" d="M76.0484 40.4456C76.1509 40.3479 76.3077 40.3579 76.3987 40.4679C76.4898 40.578 76.4805 40.7465 76.378 40.8443L76.2131 40.645C76.378 40.8443 76.3779 40.8444 76.3778 40.8446L76.3775 40.8449L76.3767 40.8456L76.3746 40.8476L76.3679 40.8538C76.3623 40.8589 76.3545 40.8659 76.3446 40.8747C76.3248 40.8921 76.2963 40.9164 76.2595 40.946C76.1859 41.0052 76.0786 41.0856 75.9398 41.1748C75.6625 41.3529 75.2578 41.567 74.7432 41.7145C73.7077 42.0113 72.245 42.0333 70.5084 40.9897C70.3888 40.9178 70.3461 40.7553 70.413 40.6268C70.48 40.4983 70.6312 40.4524 70.7509 40.5244C72.3684 41.4964 73.6973 41.4624 74.6151 41.1993C75.0771 41.0669 75.4394 40.875 75.6849 40.7172C75.8076 40.6384 75.9007 40.5684 75.962 40.519C75.9927 40.4944 76.0154 40.4749 76.0299 40.4622C76.0371 40.4559 76.0423 40.4512 76.0454 40.4484L76.0482 40.4457L76.0484 40.4456L76.0484 40.4456Z" fill="#3C4C5C"/>
<path fill-rule="evenodd" clip-rule="evenodd" d="M75.0005 32.7019L75.0009 32.7015L75.0045 32.6976C75.008 32.6939 75.0136 32.6881 75.0212 32.6803C75.0365 32.6648 75.0598 32.6417 75.0906 32.613C75.1523 32.5555 75.2431 32.4761 75.3577 32.3903C75.5896 32.2169 75.9066 32.0271 76.268 31.932C76.6221 31.8388 77.0187 31.8357 77.4365 32.0329C77.8621 32.2337 78.3363 32.655 78.8037 33.4588C78.865 33.5641 79.0141 33.6069 79.1368 33.5542C79.2594 33.5016 79.3092 33.3735 79.2479 33.2681C78.7549 32.4203 78.2214 31.9166 77.6756 31.659C77.1219 31.3977 76.5835 31.4028 76.1226 31.5241C75.669 31.6435 75.2911 31.8746 75.0317 32.0685C74.9008 32.1665 74.7969 32.2573 74.7253 32.3241C74.6895 32.3575 74.6615 32.3851 74.6422 32.4048C74.6325 32.4146 74.625 32.4225 74.6196 32.4281L74.6133 32.4348L74.6114 32.4369L74.6108 32.4375L74.6105 32.4378C74.6104 32.4379 74.6103 32.438 74.8054 32.5699L74.6103 32.438C74.5255 32.5306 74.5441 32.6647 74.6518 32.7375C74.7595 32.8104 74.9155 32.7944 75.0003 32.702L75.0005 32.7019Z" fill="#3C4C5C"/>
<path fill-rule="evenodd" clip-rule="evenodd" d="M88.2576 33.2336L88.2583 33.2336L88.2646 33.2341C88.2707 33.2346 88.2804 33.2354 88.2933 33.2367C88.3192 33.2393 88.358 33.2437 88.407 33.2507C88.5051 33.2647 88.6429 33.2889 88.7986 33.3296C89.1133 33.4118 89.4842 33.5569 89.7539 33.8062C90.0182 34.0505 90.1865 34.3942 90.1111 34.8948C90.0342 35.4047 89.6996 36.1094 88.8798 37.0728C88.7724 37.1991 88.7803 37.3587 88.8975 37.4292C89.0147 37.4997 89.1969 37.4545 89.3044 37.3282C90.169 36.3121 90.5831 35.4986 90.6816 34.8446C90.7816 34.1812 90.552 33.7153 90.208 33.3974C89.8693 33.0844 89.4212 32.9148 89.0692 32.8228C88.8914 32.7764 88.7338 32.7486 88.6199 32.7324C88.5629 32.7243 88.5165 32.719 88.4837 32.7157C88.4673 32.7141 88.4542 32.7129 88.4449 32.7122L88.4338 32.7113L88.4305 32.7111L88.4293 32.711L88.4289 32.711C88.4287 32.711 88.4286 32.7109 88.3431 32.9722L88.4286 32.7109C88.2767 32.701 88.1153 32.8099 88.0681 32.9543C88.0209 33.0985 88.1056 33.2235 88.2573 33.2335L88.2576 33.2336Z" fill="#E19D6F"/>
<path d="M76.337 34.7548C76.8923 34.7548 77.3425 34.2714 77.3425 33.675C77.3425 33.0787 76.8923 32.5952 76.337 32.5952C75.7817 32.5952 75.3315 33.0787 75.3315 33.675C75.3315 34.2714 75.7817 34.7548 76.337 34.7548Z" fill="#3C4C5C"/>
<path fill-rule="evenodd" clip-rule="evenodd" d="M69.9696 31.4978C70.5256 31.6736 71.1084 32.0607 71.6906 32.7556C71.7823 32.8651 71.7741 33.0337 71.6721 33.1321C71.5702 33.2306 71.4132 33.2217 71.3215 33.1123C70.789 32.4767 70.2817 32.1523 69.8293 32.0093C69.3773 31.8663 68.9626 31.8988 68.6065 32.0073C68.2483 32.1165 67.9503 32.3027 67.7403 32.464C67.6359 32.5442 67.5547 32.6171 67.5004 32.6691C67.4732 32.6951 67.4529 32.7158 67.4399 32.7294C67.4333 32.7362 67.4286 32.7413 67.4258 32.7443L67.423 32.7474C67.4228 32.7476 67.4227 32.7478 67.4227 32.7478L67.4228 32.7477L67.4229 32.7475C67.3283 32.8539 67.1712 32.8579 67.0721 32.7563C66.9728 32.6547 66.9691 32.4859 67.0637 32.3794L67.2434 32.5634C67.0637 32.3794 67.0638 32.3793 67.0639 32.3791L67.0642 32.3788L67.0648 32.3781L67.0667 32.376L67.0727 32.3694C67.0778 32.364 67.0847 32.3565 67.0937 32.3472C67.1115 32.3286 67.137 32.3026 67.1698 32.2712C67.2354 32.2084 67.3305 32.1231 67.4515 32.0302C67.6925 31.8451 68.0421 31.6251 68.4709 31.4944C68.9018 31.363 69.4134 31.3218 69.9696 31.4978ZM67.4229 32.7475C67.423 32.7475 67.423 32.7474 67.4231 32.7473L67.2474 32.5674C67.4231 32.7473 67.423 32.7474 67.4229 32.7475Z" fill="#3C4C5C"/>
<path d="M68.8741 34.7548C69.4294 34.7548 69.8796 34.2714 69.8796 33.675C69.8796 33.0787 69.4294 32.5952 68.8741 32.5952C68.3188 32.5952 67.8687 33.0787 67.8687 33.675C67.8687 34.2714 68.3188 34.7548 68.8741 34.7548Z" fill="#3C4C5C"/>
<path fill-rule="evenodd" clip-rule="evenodd" d="M70.8727 30.4368C70.8728 30.4369 70.8729 30.437 70.7413 30.6631L70.8729 30.437C70.9892 30.515 71.0245 30.6795 70.9519 30.8043C70.8792 30.9292 70.7262 30.9672 70.6099 30.8893C70.6099 30.8893 70.6099 30.8892 70.6099 30.8892L70.6098 30.8892L70.6092 30.8888L70.6055 30.8863C70.6019 30.884 70.5962 30.8803 70.5884 30.8753C70.5729 30.8655 70.5492 30.8506 70.5181 30.8319C70.4558 30.7945 70.3639 30.7417 70.2479 30.6817C70.0153 30.5615 69.6889 30.414 69.3124 30.3037C68.5524 30.0811 67.6339 30.0221 66.8595 30.5757C66.7454 30.6573 66.5912 30.6241 66.5153 30.5015C66.4393 30.379 66.4702 30.2134 66.5843 30.1318C67.5329 29.4537 68.6241 29.5494 69.4431 29.7893C69.8561 29.9103 70.2114 30.0711 70.4633 30.2013C70.5895 30.2665 70.6904 30.3245 70.7605 30.3665C70.7955 30.3876 70.8228 30.4047 70.8418 30.4168C70.8513 30.4228 70.8587 30.4276 70.8639 30.431L70.87 30.4351L70.8719 30.4363L70.8725 30.4367L70.8727 30.4368Z" fill="#3C4C5C"/>
<path fill-rule="evenodd" clip-rule="evenodd" d="M75.0801 30.4795C74.8293 30.6238 74.6835 30.7788 74.6279 30.8929C74.5642 31.0233 74.4142 31.0737 74.2928 31.0053C74.1713 30.937 74.1244 30.7758 74.1881 30.6454C74.3087 30.3982 74.5515 30.1787 74.8457 30.0094C75.1463 29.8366 75.5258 29.7012 75.9542 29.6388C76.8133 29.5136 77.8803 29.6801 78.9176 30.4425C79.0308 30.5257 79.0597 30.6916 78.9823 30.8131C78.9049 30.9346 78.7504 30.9657 78.6372 30.8825C77.7083 30.1999 76.7668 30.0585 76.021 30.1672C75.6468 30.2217 75.3247 30.3389 75.0801 30.4795Z" fill="#3C4C5C"/>
<path d="M83.1915 29.8966C88.5388 28.698 92.0819 23.6529 91.1053 18.6281C90.1287 13.6033 85.0021 10.5016 79.6548 11.7003C74.3075 12.8989 70.7644 17.944 71.741 22.9688C72.7176 27.9936 77.8442 31.0953 83.1915 29.8966Z" fill="#47281F"/>
<path d="M71.7758 24.8507C72.7343 21.888 71.4996 18.7357 69.0181 17.8097C66.5365 16.8838 63.7478 18.5348 62.7893 21.4975C61.8308 24.4601 63.0654 27.6125 65.547 28.5384C68.0285 29.4644 70.8172 27.8133 71.7758 24.8507Z" fill="#47281F"/>
<path d="M100.516 119.062C104.726 128.388 109.453 243.572 109.453 243.572C92.323 246.238 83.1373 243.572 83.1373 243.572L75.4014 134.96C75.4014 134.96 96.5336 110.247 100.516 119.062Z" fill="#65B5E6"/>
<path d="M59.5518 114.796L51.1108 243.572C60.7931 247.838 79.9095 243.572 79.9095 243.572L76.682 136.926L59.5518 114.796Z" fill="#65B5E6"/>
<path d="M108.127 74.6782C108.127 74.6782 114.533 107.259 108.127 110.165C101.722 113.071 96.8413 77.3177 96.8413 77.3177L108.127 74.6809V74.6782Z" fill="#F4B082"/>
<path d="M61.0217 68.9486L59.053 56.4069L68.487 53.2075L87.1068 52.9409L100.016 56.1403L102.996 108.131C85.6172 116.662 56.5703 109.197 56.5703 109.197C56.5703 109.197 59.7506 75.5873 61.0217 68.9486Z" fill="#56B576"/>
<path d="M73.2067 51.3418L68.4897 53.2081C68.4897 53.2081 68.2166 57.8339 77.1591 57.4313C88.1025 56.9407 87.1095 52.9415 87.1095 52.9415L81.526 50.9712L73.2067 51.3418Z" fill="#F4B082"/>
<path d="M91.3819 85.6068C98.7901 85.5668 103.966 84.6443 111.228 81.4476C109.438 62.3818 104.493 55.2285 96.1238 55.6551C89.0333 56.0177 85.0785 62.4618 86.5706 69.1059C87.2607 72.1853 90.1903 78.7761 91.3819 85.6042V85.6068Z" fill="#56B576"/>
<path d="M78.358 36.5117C78.3952 37.2636 79.001 37.8528 79.7036 37.8128C80.4161 37.7728 80.9623 37.117 80.9251 36.3651C80.8878 35.6052 80.2796 35.0054 79.5646 35.0453C78.862 35.0853 78.3183 35.7492 78.358 36.5091V36.5117Z" fill="#E19D6F"/>
<path d="M68.3355 85.5219C60.9273 85.4819 55.751 84.5594 48.4893 81.3626C50.2792 62.2969 55.2247 55.1436 63.5936 55.5702C70.6841 55.9328 74.6389 62.3769 73.1468 69.021C72.4567 72.1004 69.5271 78.6911 68.3355 85.5192V85.5219Z" fill="#56B576"/>
<path d="M96.1932 54.6051L88.9861 52.9067C88.9861 52.9067 75.1379 94.4589 100.667 104.633C100.667 104.633 97.9161 100.037 97.509 98.9807C96.069 95.2508 88.425 82.8611 96.1932 54.6051Z" fill="#25303B"/>
<path d="M95.4312 80.6235C95.4312 80.6235 114.096 104.222 108.433 109.869C101.111 117.171 90.5652 90.803 88.4302 82.3032" fill="#F4B082"/>
<path d="M88.3856 71.7241C88.0902 71.6174 87.5043 71.3135 86.33 70.5163C85.9377 70.2497 85.5256 69.9617 85.1061 69.6658C84.833 69.4738 84.4929 69.4018 84.1776 69.4925C83.3757 69.7164 83.1423 70.383 83.0455 71.0095C83.0082 71.2468 83.0976 71.4868 83.2689 71.6414C84.7635 72.9745 86.1264 74.2116 86.6527 74.7342C87.0897 74.6862 88.3831 71.7401 88.3856 71.7241Z" fill="#F4B082"/>
<path d="M94.3461 78.5573C94.2294 78.0587 94.1996 77.5388 94.2567 77.0109C94.4106 75.6352 94.6068 72.7024 93.7403 71.1027C92.0124 67.9113 92.8739 65.7357 92.787 65.0425C88.9538 65.5251 90.632 70.4761 90.632 70.4761C90.632 70.4761 90.4955 70.8041 88.8321 68.4418C88.2984 67.6846 87.7298 66.8395 87.1663 65.9943C86.347 65.3198 85.3465 65.8663 84.9791 66.8048C84.8823 67.0554 84.9096 67.3434 85.0262 67.5833C85.5426 68.6391 85.9821 69.5563 86.1956 70.0309C86.2676 70.1882 82.8018 75.3845 82.7993 75.6165C83.9686 77.1415 86.7939 80.4822 86.7939 80.4822C86.9279 80.6235 87.0223 80.7942 87.0744 80.9808L90.133 87.113L96.4563 82.3032L94.3461 78.5573Z" fill="#F4B082"/>
<path d="M89.2045 75.7233C88.9066 75.6327 88.3083 75.3607 87.1042 74.6275C85.9275 73.9103 85.3142 73.2091 84.0878 72.412C83.9587 72.3293 83.2983 71.8467 82.772 72.1293C82.0272 72.5293 81.8088 72.8759 81.8708 73.7797C81.8857 74.0063 81.9925 74.2143 82.1613 74.3502C84.3361 76.0939 86.851 78.1389 87.6256 78.8427C88.0576 78.7708 89.2045 75.742 89.2045 75.726V75.7233Z" fill="#F4B082"/>
<path d="M87.5039 77.6563C87.3127 77.5923 86.9379 77.4137 86.1881 76.9524C84.6389 76.0006 83.7204 74.7022 82.772 74.9555C81.7193 75.2381 81.8385 76.4192 82.5088 76.9338C83.3107 77.5496 85.9349 79.6213 86.7194 80.3251C87.0049 80.3091 87.5039 77.6643 87.5039 77.6563Z" fill="#F4B082"/>
<path d="M71.5405 47.6274C71.5405 47.6274 74.4527 49.0245 79.6662 47.6274C79.6662 47.6274 75.8057 51.0721 71.7143 50.5416L71.5405 47.6274Z" fill="#AB4D33"/>
<path d="M66.6895 36.9072C66.7268 37.6591 67.3326 38.2483 68.0351 38.2083C68.7477 38.1683 69.2938 37.5125 69.2566 36.7606C69.2194 36.0008 68.6111 35.4009 67.8961 35.4409C67.1935 35.4808 66.6498 36.1447 66.6895 36.9046V36.9072Z" fill="#E19D6F"/>
<path fill-rule="evenodd" clip-rule="evenodd" d="M71.45 31.6109C71.5836 31.5778 71.7169 31.6673 71.7477 31.8108L71.5058 31.8707C71.7477 31.8108 71.7477 31.8107 71.7477 31.8108L71.7483 31.8139L71.75 31.8219C71.7515 31.8289 71.7536 31.839 71.7563 31.8522C71.7617 31.8784 71.7694 31.9165 71.7788 31.9648C71.7975 32.0614 71.8231 32.199 71.8506 32.364C71.9056 32.6929 71.9689 33.1348 72.0006 33.5793C72.032 34.0179 72.0346 34.4833 71.9561 34.8484C71.9169 35.0307 71.8526 35.2121 71.7421 35.3523C71.6239 35.5023 71.4596 35.5953 71.2575 35.5953C70.8198 35.5953 70.5198 36.0197 70.5452 36.511C70.5574 36.7459 70.6478 36.9761 70.8299 37.1491C71.0116 37.3217 71.3051 37.4563 71.754 37.4563C71.8911 37.4563 72.0023 37.5757 72.0023 37.7229C72.0023 37.8702 71.8911 37.9895 71.754 37.9895C71.2111 37.9895 70.7919 37.8249 70.5009 37.5485C70.2104 37.2726 70.0683 36.9043 70.0495 36.5406C70.0129 35.8348 70.4563 35.0621 71.2575 35.0621C71.3031 35.0621 71.3323 35.047 71.3631 35.0079C71.4016 34.959 71.4418 34.8703 71.4723 34.7284C71.5332 34.445 71.536 34.0459 71.5056 33.6201C71.4756 33.2001 71.4152 32.7774 71.3619 32.458C71.3353 32.2988 71.3107 32.1662 71.2927 32.0737C71.2837 32.0275 71.2764 31.9913 71.2714 31.9669C71.2689 31.9547 71.267 31.9454 71.2657 31.9393L71.2643 31.9325L71.2639 31.9306" fill="#3C4C5C"/>
<path d="M59.5522 114.796C59.5522 114.796 82.1269 118.788 98.5024 113.591C98.5024 113.591 103.991 119.329 102.254 133.193L73.9516 141.725L59.5522 114.796Z" fill="#65B5E6"/>
<path fill-rule="evenodd" clip-rule="evenodd" d="M80.5669 119.894C80.7 119.859 80.8348 119.945 80.8681 120.088L80.6272 120.153C80.8681 120.088 80.868 120.088 80.868 120.088C80.868 120.088 80.868 120.088 80.868 120.088L80.8682 120.089L80.869 120.092C80.8698 120.095 80.871 120.1 80.8728 120.108C80.8764 120.122 80.882 120.144 80.8898 120.173C80.9055 120.231 80.93 120.317 80.9646 120.428C81.0338 120.649 81.1434 120.968 81.3037 121.352C81.6246 122.119 82.1472 123.143 82.9534 124.167C84.5603 126.206 87.3032 128.258 91.8661 128.258C92.0033 128.258 92.1144 128.377 92.1144 128.525C92.1144 128.672 92.0033 128.791 91.8661 128.791C87.1415 128.791 84.265 126.657 82.5743 124.511C81.7317 123.441 81.186 122.372 80.8508 121.57C80.683 121.169 80.5676 120.834 80.4938 120.597C80.4569 120.479 80.4304 120.386 80.413 120.321C80.4042 120.289 80.3978 120.264 80.3934 120.246C80.3912 120.238 80.3896 120.231 80.3884 120.226L80.387 120.22L80.3866 120.219L80.3865 120.218C80.3864 120.218 80.3864 120.218 80.6272 120.153L80.3864 120.218C80.3531 120.075 80.4339 119.93 80.5669 119.894Z" fill="#86D0F5"/>
<path fill-rule="evenodd" clip-rule="evenodd" d="M65.2181 119.084C65.3552 119.086 65.4648 119.207 65.4629 119.354L65.2147 119.35C65.4629 119.354 65.4629 119.354 65.4629 119.354L65.4629 119.354L65.4629 119.356L65.4628 119.361L65.4624 119.38C65.462 119.397 65.4614 119.421 65.4603 119.452C65.4582 119.515 65.4544 119.606 65.4476 119.721C65.4341 119.951 65.4088 120.279 65.3616 120.672C65.2674 121.456 65.0852 122.507 64.7321 123.561C64.0287 125.661 62.6119 127.858 59.7976 127.858C59.6605 127.858 59.5493 127.738 59.5493 127.591C59.5493 127.444 59.6605 127.325 59.7976 127.325C62.2961 127.325 63.5879 125.401 64.2649 123.38C64.6019 122.374 64.7778 121.364 64.8692 120.604C64.9148 120.224 64.9391 119.908 64.9521 119.687C64.9585 119.577 64.9621 119.491 64.9641 119.433C64.9651 119.404 64.9657 119.382 64.9661 119.367L64.9664 119.351L64.9664 119.347L64.9665 119.347V119.346C64.9665 119.346 64.9665 119.346 64.9665 119.346M65.2181 119.084C65.081 119.082 64.9684 119.199 64.9665 119.346L65.2181 119.084Z" fill="#86D0F5"/>
<path fill-rule="evenodd" clip-rule="evenodd" d="M59.8004 72.0952C59.612 71.9217 59.6118 71.9218 59.6117 71.922L59.6114 71.9224L59.6105 71.9236L59.6078 71.9269C59.6057 71.9297 59.6028 71.9334 59.5992 71.9382C59.5919 71.9477 59.5818 71.9612 59.569 71.9787C59.5436 72.0138 59.5077 72.065 59.4635 72.1323C59.3752 72.2671 59.254 72.4669 59.1173 72.7327C58.8441 73.2643 58.5095 74.06 58.2547 75.1278C57.7465 77.2573 57.5583 80.4561 58.7884 84.7852L56.3262 109.172C56.3114 109.318 56.4099 109.449 56.5462 109.465C56.6825 109.481 56.805 109.375 56.8198 109.229L59.2931 84.7337L59.278 84.6812C58.057 80.4147 58.2492 77.2986 58.7357 75.2602C58.9792 74.2397 59.2973 73.486 59.552 72.9904C59.6794 72.7425 59.791 72.5591 59.8696 72.4392C59.9089 72.3792 59.9399 72.3351 59.9605 72.3067C59.9708 72.2926 59.9785 72.2823 59.9833 72.276L59.9884 72.2695L59.9891 72.2686C59.989 72.2687 59.9889 72.2688 59.8004 72.0952ZM59.9891 72.2686C60.078 72.1568 60.066 71.9886 59.962 71.8928C59.8579 71.797 59.7012 71.8099 59.612 71.9217L59.8004 72.0952M59.9891 72.2686C59.9891 72.2685 59.9891 72.2685 59.9891 72.2686V72.2686Z" fill="#007D44"/>
<path fill-rule="evenodd" clip-rule="evenodd" d="M74.1583 83.1712C74.2936 83.1468 74.4216 83.2448 74.4443 83.39L74.1995 83.4341C74.4443 83.39 74.4443 83.3898 74.4442 83.3896L74.4442 83.3892L74.4441 83.3889C74.4441 83.3889 74.4442 83.3891 74.4443 83.3896L74.4454 83.3958C74.4465 83.4021 74.4486 83.4127 74.4517 83.4272C74.4579 83.4561 74.4685 83.5007 74.4849 83.5584C74.5177 83.6738 74.574 83.8412 74.6661 84.0402C74.8502 84.4377 75.1778 84.962 75.7507 85.4526C76.8916 86.4296 79.0501 87.3094 83.1026 86.7001C83.2383 86.6797 83.3638 86.7813 83.3828 86.9272C83.4019 87.073 83.3072 87.2078 83.1714 87.2282C79.0312 87.8507 76.7209 86.9654 75.4412 85.8695C74.8038 85.3237 74.4332 84.7345 74.2216 84.2777C74.1159 84.0495 74.0499 83.8544 74.0101 83.7143C73.9901 83.6441 73.9766 83.5876 73.968 83.5475C73.9636 83.5274 73.9605 83.5113 73.9584 83.4997C73.9573 83.4939 73.9564 83.4892 73.9558 83.4856L73.9551 83.4811L73.9548 83.4795L73.9547 83.4788C73.9547 83.4786 73.9546 83.4783 74.1995 83.4341L73.9546 83.4783C73.9319 83.3331 74.0231 83.1956 74.1583 83.1712Z" fill="#007D44"/>
</g>
<defs>
<clipPath id="clip0_16024_189806">
<rect width="224" height="224" fill="white"/>
</clipPath>
</defs>
</svg>