<?xml version="1.0" encoding="utf-8"?>
<svg xmlns="http://www.w3.org/2000/svg" width="168" height="121" viewBox="0 0 168 121" fill="none">
<path d="M37.2062 28.1311C96.2741 -9.26427 177.627 13.1579 211.376 77.257C245.125 141.356 206.881 168.31 147.813 205.705C88.7449 243.101 44.976 189.147 11.2268 125.048C5.72721 114.602 -21.8616 65.5265 37.2062 28.1311Z" fill="#F5F9FF"/>
<g clip-path="url(#clip0_16024_190171)">
<path d="M61.8252 125.982C61.8252 105.652 78.2795 89.2041 98.5242 89.2041C118.769 89.2041 135.199 105.652 135.199 125.982C135.199 146.312 118.791 162.712 98.5242 162.712C78.2575 162.712 61.8252 146.267 61.8252 125.982Z" fill="white"/>
<path fill-rule="evenodd" clip-rule="evenodd" d="M98.5247 92.3361C80.0056 92.3361 64.9521 107.383 64.9521 125.982C64.9521 144.535 79.9819 159.58 98.5247 159.58C117.067 159.58 132.073 144.58 132.073 125.982C132.073 107.38 117.041 92.3361 98.5247 92.3361ZM58.6992 125.982C58.6992 103.921 76.5544 86.0723 98.5247 86.0723C120.498 86.0723 138.326 103.924 138.326 125.982C138.326 148.044 120.516 165.844 98.5247 165.844C76.534 165.844 58.6992 148 58.6992 125.982Z" fill="#AEADB4"/>
<path fill-rule="evenodd" clip-rule="evenodd" d="M98.4361 86.588C76.77 86.588 59.1587 104.191 59.1587 125.951C59.1587 147.658 76.7435 165.26 98.4361 165.26C120.129 165.26 137.688 147.71 137.688 125.951C137.688 104.189 120.101 86.588 98.4361 86.588ZM56.0322 125.951C56.0322 102.46 75.0445 83.4561 98.4361 83.4561C121.829 83.4561 140.814 102.461 140.814 125.951C140.814 149.442 121.853 168.392 98.4361 168.392C75.0195 168.392 56.0322 149.39 56.0322 125.951Z" fill="#25303B"/>
<path d="M110.861 100.949C119.967 100.949 127.733 107.552 129.214 116.553L135.619 155.514" stroke="#25303B" stroke-width="17" stroke-miterlimit="3.86" stroke-linecap="round"/>
<path d="M92.7705 48.6678C92.7705 48.6678 94.6685 62.9696 98.0836 74.3107C99.8418 80.1508 115.524 94.0989 115.524 94.0989L119.967 90.6096C119.967 90.6096 110.99 75.6612 105.14 70.4438L102.172 48.1777L92.7705 48.6678Z" fill="#F1D2C5"/>
<path d="M124.493 97.045L116.958 88.8394L111.842 92.4153C111.842 92.4153 112.384 96.4978 117.984 98.9554C123.583 101.413 124.495 97.0431 124.495 97.0431L124.493 97.045Z" fill="#F1D2C5"/>
<path d="M60.0635 42.6179L76.1298 37.2881V86.7999L60.0635 93.4524V42.6179Z" fill="#EC6643"/>
<path fill-rule="evenodd" clip-rule="evenodd" d="M64.6875 28.4359C64.6875 27.6652 65.3123 27.0405 66.0831 27.0405C72.4049 27.0405 77.5257 32.174 77.5257 38.5004V106.673C77.5257 107.443 76.9008 108.068 76.1301 108.068C75.3593 108.068 74.7345 107.443 74.7345 106.673V38.5004C74.7345 33.7102 70.8583 29.8312 66.0831 29.8312C65.3123 29.8312 64.6875 29.2065 64.6875 28.4359Z" fill="#25303B"/>
<path fill-rule="evenodd" clip-rule="evenodd" d="M57.084 28.7327C57.084 27.5767 58.0212 26.6396 59.1774 26.6396H67.6372C68.7934 26.6396 69.7306 27.5767 69.7306 28.7327C69.7306 29.8886 68.7934 30.8257 67.6372 30.8257H59.1774C58.0212 30.8257 57.084 29.8886 57.084 28.7327Z" fill="#AEADB4"/>
<path fill-rule="evenodd" clip-rule="evenodd" d="M80.7021 63.9444C80.7021 63.0795 81.402 62.3784 82.2654 62.3784H94.7362C103.956 62.3784 111.43 69.8647 111.43 79.101V99.6205C111.43 100.485 110.73 101.186 109.866 101.186C109.003 101.186 108.303 100.485 108.303 99.6205V79.101C108.303 71.5944 102.23 65.5103 94.7362 65.5103H82.2654C81.402 65.5103 80.7021 64.8092 80.7021 63.9444Z" fill="#25303B"/>
<path fill-rule="evenodd" clip-rule="evenodd" d="M87.2109 104.657C87.2109 103.792 87.9108 103.091 88.7742 103.091C98.6448 103.091 107.064 110.249 108.669 120.007L108.669 120.007L115.074 158.968C115.215 159.821 114.638 160.627 113.786 160.768C112.934 160.908 112.13 160.33 111.99 159.477L105.584 120.516C105.584 120.516 105.584 120.516 105.584 120.516C104.228 112.271 97.1142 106.223 88.7742 106.223C87.9108 106.223 87.2109 105.522 87.2109 104.657Z" fill="#25303B"/>
<path fill-rule="evenodd" clip-rule="evenodd" d="M48.4541 32.5552C48.4541 31.6904 49.154 30.9893 50.0173 30.9893C56.4292 30.9893 61.6275 36.1966 61.6275 42.6197V110.792C61.6275 111.657 60.9276 112.358 60.0643 112.358C59.2009 112.358 58.5011 111.657 58.5011 110.792V42.6197C58.5011 37.9263 54.7025 34.1212 50.0173 34.1212C49.154 34.1212 48.4541 33.4201 48.4541 32.5552Z" fill="#25303B"/>
<path d="M73.0666 63.9517C73.0666 63.9517 62.9976 81.7483 67.2147 91.9951C71.4317 102.242 86.2327 108.478 108.625 104.263C108.625 104.263 144.425 96.4793 143.625 90.9948C141.137 73.9167 115.713 80.4863 100.364 80.4863C96.1656 80.4863 73.0666 63.9517 73.0666 63.9517Z" fill="#3C4C5C"/>
<path d="M143.507 90.0774C145.451 103.36 148.372 136.763 148.397 137.008L130.742 138.926C126.781 101.581 122.792 88.4286 120.033 82.6548" fill="#3C4C5C"/>
<path d="M84.495 20.5489C90.0316 20.5392 94.5128 16.465 94.504 11.4488C94.4953 6.4327 89.9999 2.37416 84.4633 2.38384C78.9268 2.39352 74.4456 6.46775 74.4543 11.4839C74.463 16.5 78.9584 20.5586 84.495 20.5489Z" fill="#874B3D"/>
<path d="M84.7072 21.8348C87.4291 22.4501 89.5735 24.1192 89.5091 25.5654L89.1063 34.3219C89.0401 35.7681 86.7836 36.4405 84.0635 35.8233C81.3472 35.2099 79.1992 33.5389 79.2672 32.0927L79.6681 23.3362C79.7362 21.8919 81.9909 21.2194 84.7091 21.8366L84.7072 21.8348Z" fill="#F1D2C5"/>
<path d="M84.0966 28.2095C80.1775 27.4486 77.7241 23.1008 78.6124 18.4969L79.8704 11.9954C80.1481 10.5566 80.72 9.26145 81.4961 8.18555L93.6433 10.5437C93.7647 11.1388 93.3196 13.694 93.0272 15.7482C92.6134 18.659 92.2953 21.5883 91.8667 23.6037C90.5739 29.6778 84.2566 28.239 84.2566 28.239" fill="#F1D2C5"/>
<path d="M77.8096 15.1676C76.5259 14.9189 75.2845 15.759 75.0362 17.0431C74.7861 18.3272 75.6266 19.5689 76.9103 19.8176L80.6878 20.5508L81.4473 15.8751L77.8096 15.1676Z" fill="#F1D2C5"/>
<path d="M82.5084 11.8036C82.5084 11.8036 82.2123 16.6507 79.9336 18.178C79.9336 18.178 79.1649 13.6072 76.123 13.6127L78.3998 10.9414L82.5084 11.8036Z" fill="#874B3D"/>
<path d="M89.4652 27.4135C89.4652 27.4135 86.9898 29.1157 83.0449 27.8704C83.0449 27.8704 85.5626 29.7458 89.3751 29.3663L89.4652 27.4116V27.4135Z" fill="#F5A487"/>
<path d="M89.3067 32.2386C89.3067 32.2386 85.3692 35.645 79.2855 31.522L67.2965 35.645C67.2965 35.645 71.0225 42.456 67.6551 50.7021L65.7314 86.627C65.7314 86.627 90.927 87.3639 100.306 80.5474L96.6447 35.5161L89.3067 32.2405V32.2386Z" fill="#9185BE"/>
<path d="M96.6455 35.5142C96.6455 35.5142 103.617 37.2514 103.985 56.2271L97.3646 58.2537" fill="#9185BE"/>
<path fill-rule="evenodd" clip-rule="evenodd" d="M97.9385 43.9995C98.04 43.9995 98.1224 44.082 98.1224 44.1837V52.8457L100.501 80.6571L100.388 80.7125L100.307 80.547C100.388 80.7125 100.388 80.7125 100.388 80.7125L100.388 80.7127L100.385 80.7141L100.377 80.7181C100.369 80.7216 100.359 80.7267 100.345 80.7333C100.316 80.7466 100.275 80.766 100.22 80.7908C100.111 80.8404 99.9483 80.9119 99.7359 81C99.311 81.1761 98.6852 81.4188 97.8785 81.6862C96.2654 82.2209 93.9284 82.8548 91.0283 83.2535C90.9276 83.2674 90.8349 83.1969 90.8211 83.0961C90.8073 82.9953 90.8776 82.9023 90.9783 82.8885C93.8529 82.4932 96.1679 81.8651 97.763 81.3364C98.5605 81.072 99.1779 80.8325 99.5952 80.6595C99.8039 80.573 99.9625 80.5031 100.068 80.4551C100.085 80.4478 100.099 80.441 100.113 80.4348L97.7546 52.8615V44.1837C97.7546 44.082 97.8369 43.9995 97.9385 43.9995Z" fill="#4F338B"/>
<path fill-rule="evenodd" clip-rule="evenodd" d="M94.0102 60.5743C94.108 60.6017 94.1651 60.7034 94.1376 60.8014L91.1804 71.3651C91.1529 71.4631 91.0514 71.5203 90.9536 71.4928C90.8558 71.4653 90.7988 71.3636 90.8262 71.2657L93.7835 60.7019C93.8109 60.6039 93.9124 60.5468 94.0102 60.5743Z" fill="#4F338B"/>
<path fill-rule="evenodd" clip-rule="evenodd" d="M89.7949 23.4125C89.8322 23.5072 89.7859 23.6142 89.6914 23.6515C88.7771 24.0131 87.732 24.0105 86.9286 23.9233C86.5247 23.8795 86.1766 23.8137 85.9292 23.7587C85.8054 23.7313 85.7066 23.7065 85.6384 23.6884C85.6042 23.6794 85.5777 23.672 85.5595 23.6669C85.5504 23.6643 85.5434 23.6623 85.5385 23.6608L85.5329 23.6592L85.5313 23.6587L85.5308 23.6586C85.5308 23.6585 85.5305 23.6585 85.5834 23.482L85.5305 23.6585C85.4332 23.6293 85.378 23.5266 85.4072 23.4291C85.4364 23.3317 85.5389 23.2763 85.6361 23.3055C85.6361 23.3055 85.6362 23.3055 85.6361 23.3055M85.6361 23.3055L85.6372 23.3059L85.6415 23.3071C85.6454 23.3083 85.6515 23.31 85.6596 23.3123C85.6758 23.3169 85.7003 23.3237 85.7323 23.3322C85.7963 23.3491 85.8903 23.3727 86.0088 23.399C86.246 23.4517 86.5805 23.5149 86.9682 23.557C87.7484 23.6417 88.7235 23.6381 89.5563 23.3088C89.6508 23.2715 89.7576 23.3179 89.7949 23.4125" fill="#3C4C5C"/>
<path fill-rule="evenodd" clip-rule="evenodd" d="M89.15 15.1587C89.2513 15.1513 89.3394 15.2276 89.3467 15.3291L89.7274 20.5855C89.7425 20.7983 89.6424 20.9851 89.4897 21.1209C89.338 21.2558 89.128 21.348 88.8911 21.3865C88.7909 21.4028 88.6964 21.3346 88.6801 21.2341C88.6639 21.1337 88.732 21.0391 88.8322 21.0228C89.0147 20.9931 89.1559 20.925 89.2456 20.8453C89.3342 20.7665 89.3656 20.6844 89.3605 20.6117C89.3605 20.6116 89.3605 20.6117 89.3605 20.6117L88.9799 15.3558C88.9725 15.2543 89.0487 15.1661 89.15 15.1587Z" fill="#3C4C5C"/>
<path fill-rule="evenodd" clip-rule="evenodd" d="M87.5013 16.3945C87.5014 16.3946 87.5014 16.3946 87.3411 16.4393L87.5014 16.3946C87.5428 16.4527 87.5011 16.5208 87.4083 16.5466C87.3156 16.5725 87.2069 16.5465 87.1655 16.4885C87.1655 16.4884 87.1655 16.4885 87.1655 16.4885M87.1655 16.4885L87.1653 16.4881L87.1636 16.4858C87.1619 16.4836 87.1593 16.48 87.1556 16.4753C87.1482 16.4659 87.1369 16.4518 87.1216 16.434C87.091 16.3985 87.045 16.349 86.9844 16.2941C86.8616 16.1828 86.6864 16.0564 86.4672 15.9751C86.2541 15.896 85.9993 15.859 85.6941 15.9216C85.3804 15.9859 84.9917 16.1598 84.5375 16.5352C84.4762 16.5859 84.3609 16.5958 84.2799 16.5575C84.1989 16.5191 84.183 16.4468 84.2444 16.3961C84.7219 16.0014 85.1669 15.7873 85.5796 15.7027C86.0008 15.6164 86.3652 15.6696 86.6547 15.777C86.9382 15.8821 87.1493 16.0385 87.287 16.1632C87.3567 16.2264 87.4096 16.2833 87.4453 16.3247C87.4631 16.3454 87.4768 16.3623 87.4862 16.3744C87.4908 16.3804 87.4945 16.3851 87.497 16.3886L87.5 16.3927L87.5009 16.3939L87.5013 16.3945" fill="#3C4C5C"/>
<path fill-rule="evenodd" clip-rule="evenodd" d="M91.6517 16.3785C91.1768 16.1924 90.4267 16.154 89.3761 16.8884C89.2928 16.9466 89.1781 16.9262 89.12 16.8427C89.0619 16.7593 89.0823 16.6444 89.1656 16.5862C90.2998 15.7934 91.1782 15.7973 91.7857 16.0354C92.0833 16.152 92.3051 16.3208 92.4524 16.46C92.5262 16.5298 92.582 16.5927 92.6198 16.6391C92.6388 16.6623 92.6533 16.6814 92.6635 16.6952C92.6686 16.7022 92.6726 16.7078 92.6755 16.7119L92.679 16.7171L92.6802 16.7188L92.6806 16.7194L92.6808 16.7197C92.6808 16.7198 92.6809 16.7199 92.5279 16.822L92.6809 16.7199C92.7372 16.8046 92.7144 16.9189 92.6298 16.9754C92.5455 17.0317 92.4316 17.009 92.3752 16.9247C92.3751 16.9246 92.375 16.9245 92.375 16.9244L92.375 16.9245L92.374 16.923C92.3727 16.9211 92.3704 16.9179 92.3671 16.9134C92.3605 16.9044 92.3499 16.8904 92.3352 16.8725C92.3059 16.8366 92.2608 16.7855 92.2 16.728C92.078 16.6127 91.8952 16.4739 91.6517 16.3785ZM92.3749 16.9244C92.375 16.9244 92.375 16.9244 92.375 16.9244L92.3749 16.9244Z" fill="#3C4C5C"/>
<path d="M90.668 17.627C90.9899 17.627 91.2509 17.3655 91.2509 17.043C91.2509 16.7205 90.9899 16.459 90.668 16.459C90.346 16.459 90.085 16.7205 90.085 17.043C90.085 17.3655 90.346 17.627 90.668 17.627Z" fill="#3C4C5C"/>
<path fill-rule="evenodd" clip-rule="evenodd" d="M89.9589 15.1734L89.9593 15.1731L89.9622 15.1708C89.9649 15.1687 89.9693 15.1653 89.9753 15.1607C89.9873 15.1517 90.0056 15.1381 90.0296 15.1211C90.0777 15.0871 90.1485 15.0393 90.2375 14.9861C90.4163 14.8792 90.6648 14.7525 90.9476 14.6686C91.5093 14.502 92.1846 14.5065 92.7475 15.1508C92.8144 15.2274 92.9306 15.2351 93.0071 15.1681C93.0835 15.1011 93.0912 14.9847 93.0243 14.9081C92.3349 14.1191 91.4893 14.1236 90.8431 14.3153C90.522 14.4106 90.2449 14.5526 90.049 14.6697C89.9507 14.7285 89.8719 14.7815 89.8172 14.8203C89.7899 14.8396 89.7685 14.8555 89.7536 14.8667C89.7462 14.8723 89.7404 14.8768 89.7363 14.88L89.7315 14.8838L89.73 14.885L89.7295 14.8853L89.7294 14.8855C89.7293 14.8855 89.7292 14.8856 89.8441 15.0295L89.7292 14.8856C89.6499 14.9491 89.637 15.0651 89.7004 15.1445C89.7638 15.224 89.8795 15.2369 89.9588 15.1734L89.9589 15.1734Z" fill="#3C4C5C"/>
<path fill-rule="evenodd" clip-rule="evenodd" d="M85.9076 14.1876C86.5744 14.2017 87.225 14.4682 87.7614 14.7986C87.848 14.8519 87.875 14.9654 87.8218 15.0521C87.7686 15.1387 87.6553 15.1658 87.5688 15.1125C87.0643 14.8018 86.4781 14.5682 85.8999 14.556C85.3306 14.544 84.7572 14.7456 84.2571 15.3297C84.191 15.407 84.0749 15.4159 83.9978 15.3496C83.9207 15.2834 83.9118 15.1671 83.9779 15.0899C84.5519 14.4194 85.2318 14.1733 85.9076 14.1876Z" fill="#3C4C5C"/>
<path d="M85.9951 17.3672C86.3171 17.3672 86.5781 17.1058 86.5781 16.7832C86.5781 16.4607 86.3171 16.1992 85.9951 16.1992C85.6731 16.1992 85.4121 16.4607 85.4121 16.7832C85.4121 17.1058 85.6731 17.3672 85.9951 17.3672Z" fill="#3C4C5C"/>
<path d="M109.337 89.4436C112.14 95.1971 114.565 104.79 118.803 142.104L136.443 140.055C136.416 139.81 133.484 100.864 130.477 88.8062" fill="#3C4C5C"/>
<path fill-rule="evenodd" clip-rule="evenodd" d="M41.0176 32.8499C41.0176 31.6939 41.9548 30.7568 43.111 30.7568H51.5708C52.727 30.7568 53.6642 31.6939 53.6642 32.8499C53.6642 34.0058 52.727 34.9429 51.5708 34.9429H43.111C41.9548 34.9429 41.0176 34.0058 41.0176 32.8499Z" fill="#AEADB4"/>
<path d="M81.7542 14.1173C83.7003 14.1173 85.2779 12.5369 85.2779 10.5875C85.2779 8.63798 83.7003 7.05762 81.7542 7.05762C79.8081 7.05762 78.2305 8.63798 78.2305 10.5875C78.2305 12.5369 79.8081 14.1173 81.7542 14.1173Z" fill="#874B3D"/>
<path d="M87.2913 12.1004C88.959 12.1004 90.3111 10.746 90.3111 9.07535C90.3111 7.40466 88.959 6.05029 87.2913 6.05029C85.6235 6.05029 84.2715 7.40466 84.2715 9.07535C84.2715 10.746 85.6235 12.1004 87.2913 12.1004Z" fill="#874B3D"/>
<path d="M93.0279 12.9052C95.0847 12.9052 96.752 11.2349 96.752 9.1745C96.752 7.11412 95.0847 5.44385 93.0279 5.44385C90.9711 5.44385 89.3037 7.11412 89.3037 9.1745C89.3037 11.2349 90.9711 12.9052 93.0279 12.9052Z" fill="#874B3D"/>
<path d="M88.25 8.33806C90.5292 8.33806 92.3769 6.48716 92.3769 4.20394C92.3769 1.92073 90.5292 0.0698242 88.25 0.0698242C85.9707 0.0698242 84.123 1.92073 84.123 4.20394C84.123 6.48716 85.9707 8.33806 88.25 8.33806Z" fill="#874B3D"/>
<path d="M82.5673 8.26824C84.8466 8.26824 86.6943 6.41733 86.6943 4.13412C86.6943 1.85091 84.8466 0 82.5673 0C80.2881 0 78.4404 1.85091 78.4404 4.13412C78.4404 6.41733 80.2881 8.26824 82.5673 8.26824Z" fill="#874B3D"/>
<path d="M77.333 11.1535C79.6122 11.1535 81.4599 9.30258 81.4599 7.01937C81.4599 4.73616 79.6122 2.88525 77.333 2.88525C75.0537 2.88525 73.2061 4.73616 73.2061 7.01937C73.2061 9.30258 75.0537 11.1535 77.333 11.1535Z" fill="#874B3D"/>
<path d="M92.007 7.91833C93.5448 7.91833 94.7914 6.66954 94.7914 5.12908C94.7914 3.58863 93.5448 2.33984 92.007 2.33984C90.4693 2.33984 89.2227 3.58863 89.2227 5.12908C89.2227 6.66954 90.4693 7.91833 92.007 7.91833Z" fill="#874B3D"/>
<path d="M75.076 14.6351C76.7997 14.6351 78.197 13.2354 78.197 11.5087C78.197 9.78205 76.7997 8.38232 75.076 8.38232C73.3524 8.38232 71.9551 9.78205 71.9551 11.5087C71.9551 13.2354 73.3524 14.6351 75.076 14.6351Z" fill="#874B3D"/>
<path d="M75.1113 86.4408C75.1113 86.4408 94.9735 85.1512 100.307 80.5454" stroke="#4F338B" stroke-width="2" stroke-miterlimit="10" stroke-linecap="round"/>
<path fill-rule="evenodd" clip-rule="evenodd" d="M58.5596 68.981C58.5596 68.1161 59.2595 67.415 60.1228 67.415H81.7303C90.9504 67.415 98.4237 74.9013 98.4237 84.1376V104.657C98.4237 105.522 97.7238 106.223 96.8605 106.223C95.9971 106.223 95.2972 105.522 95.2972 104.657V84.1376C95.2972 76.631 89.2237 70.5469 81.7303 70.5469H60.1228C59.2595 70.5469 58.5596 69.8458 58.5596 68.981Z" fill="#25303B"/>
<path fill-rule="evenodd" clip-rule="evenodd" d="M57.5244 104.657C57.5244 103.182 58.7183 101.986 60.1911 101.986H108.692C110.164 101.986 111.358 103.182 111.358 104.657C111.358 106.133 110.164 107.329 108.692 107.329H60.1911C58.7183 107.329 57.5244 106.133 57.5244 104.657Z" fill="#EC6643"/>
<path fill-rule="evenodd" clip-rule="evenodd" d="M101.563 83.3875C101.569 83.2859 101.657 83.2088 101.758 83.2152L124.76 84.6706C130.784 85.0525 135.505 90.0078 135.602 96.0546L136.536 140.046C136.539 140.148 136.458 140.232 136.356 140.234C136.255 140.236 136.171 140.155 136.169 140.054L135.234 96.0605C135.14 90.206 130.57 85.4081 124.736 85.0384C124.736 85.0384 124.736 85.0384 124.736 85.0384L101.735 83.5829C101.633 83.5765 101.556 83.489 101.563 83.3875Z" fill="#25303B"/>
<path fill-rule="evenodd" clip-rule="evenodd" d="M104.136 82.1548C104.184 82.2444 104.151 82.3561 104.061 82.4042C101.1 83.9958 98.6063 84.8662 96.8508 85.3389C95.973 85.5753 95.2797 85.7122 94.8046 85.7901C94.5671 85.8291 94.384 85.8533 94.2598 85.8678C94.1976 85.875 94.1502 85.8799 94.1179 85.8829C94.1018 85.8844 94.0895 85.8855 94.081 85.8862L94.0713 85.887L94.0686 85.8872L94.0678 85.8873L94.0675 85.8873C94.0674 85.8873 94.0674 85.8873 94.054 85.7036L94.0674 85.8873C93.9661 85.8947 93.878 85.8184 93.8706 85.7169C93.8632 85.6155 93.9394 85.5272 94.0406 85.5198L94.0406 85.5198L94.0407 85.5198L94.041 85.5198L94.0427 85.5197L94.0505 85.519C94.0576 85.5184 94.0686 85.5175 94.0834 85.5161C94.113 85.5133 94.1577 85.5087 94.2172 85.5018C94.336 85.4879 94.5134 85.4645 94.7452 85.4265C95.2088 85.3504 95.89 85.2161 96.7553 84.9831C98.4857 84.5171 100.952 83.6567 103.887 82.0795C103.977 82.0314 104.088 82.0651 104.136 82.1548Z" fill="#25303B"/>
<path d="M61.3931 46.7573C61.3931 46.7573 60.3504 61.1475 61.3931 72.9456C61.9302 79.0215 74.4562 95.8712 74.4562 95.8712L79.5137 93.3601C79.5137 93.3601 73.7573 76.8973 69.0879 70.5967L70.6989 48.1906L61.395 46.7573H61.3931Z" fill="#F1D2C5"/>
<path d="M67.3229 35.645C61.5022 37.6218 58.2268 46.1203 59.4792 60.2821H72.3528C72.3528 60.2821 73.7156 33.4748 67.3229 35.645Z" fill="#9185BE"/>
<path fill-rule="evenodd" clip-rule="evenodd" d="M70.2551 44.824C70.345 44.7766 70.4562 44.8111 70.5035 44.9012L71.4591 46.7193L70.3291 60.1112C70.3205 60.2126 70.2316 60.2878 70.1303 60.2793C70.0291 60.2707 69.954 60.1816 69.9626 60.0802L71.0836 46.7956L70.178 45.0728C70.1307 44.9828 70.1652 44.8714 70.2551 44.824Z" fill="#4F338B"/>
<path d="M38.583 130.484C38.583 114.661 51.4147 101.86 67.2022 101.86C82.9898 101.86 95.8028 114.661 95.8028 130.484C95.8028 146.306 83.007 159.07 67.2022 159.07C51.3975 159.07 38.583 146.271 38.583 130.484Z" fill="#F5F9FF"/>
<path fill-rule="evenodd" clip-rule="evenodd" d="M66.505 102.824C51.5743 102.824 39.4378 115.194 39.4378 130.485C39.4378 145.737 51.5552 158.106 66.505 158.106C81.4547 158.106 93.553 145.774 93.553 130.485C93.553 115.192 81.4336 102.824 66.505 102.824ZM34.3965 130.485C34.3965 112.348 48.7919 97.6743 66.505 97.6743C84.2203 97.6743 98.5943 112.351 98.5943 130.485C98.5943 148.622 84.2348 163.256 66.505 163.256C48.7754 163.256 34.3965 148.586 34.3965 130.485Z" fill="#AEADB4"/>
<path fill-rule="evenodd" clip-rule="evenodd" d="M66.5057 98.749C49.3866 98.749 35.4713 112.63 35.4713 129.789C35.4713 146.908 49.3656 160.786 66.5057 160.786C83.6457 160.786 97.5197 146.947 97.5197 129.789C97.5197 112.629 83.6237 98.749 66.5057 98.749ZM33.001 129.789C33.001 111.265 48.0232 96.2793 66.5057 96.2793C84.9891 96.2793 99.99 111.266 99.99 129.789C99.99 148.313 85.0079 163.256 66.5057 163.256C48.0035 163.256 33.001 148.274 33.001 129.789Z" fill="#25303B"/>
<path d="M84.4408 100.958L78.7268 91.3892L72.9906 93.8486C72.9906 93.8486 72.6945 97.957 77.6766 101.503C82.6587 105.05 84.439 100.956 84.439 100.956L84.4408 100.958Z" fill="#F1D2C5"/>
<path d="M83.2031 98.9683L86.3296 103.942V108.524C86.3296 108.524 84.2864 109.193 84.4188 104.495C84.4188 104.495 82.2744 103.41 81.2335 102.1C80.1926 100.79 83.2031 98.9683 83.2031 98.9683Z" fill="#F1D2C5"/>
<path d="M80.9875 99.2319L83.9411 103.996V108.578C83.9411 108.578 82.1719 109.247 82.2859 104.549C82.2859 104.549 80.4284 103.464 79.5273 102.154C78.6261 100.844 80.9875 99.2319 80.9875 99.2319Z" fill="#F1D2C5"/>
<path d="M77.6753 96.6396L80.8147 101.363L80.2629 105.986C80.2629 105.986 78.7144 106.654 78.8137 101.957C78.8137 101.957 77.1861 100.871 76.3972 99.5615C75.6082 98.2517 77.6772 96.6396 77.6772 96.6396H77.6753Z" fill="#F1D2C5"/>
<path fill-rule="evenodd" clip-rule="evenodd" d="M77.7025 18.8217L77.702 18.8213L77.6984 18.8183C77.695 18.8154 77.6896 18.8109 77.6824 18.8047C77.668 18.7923 77.4945 18.6994 77.4945 18.6994C77.2187 18.5151 77.3736 18.6743 77.1666 18.4498C76.9993 18.2683 76.7555 17.9372 76.6331 17.6596C76.3902 17.1083 76.7288 16.6365 77.8418 16.175C77.974 16.1202 77.9943 16.0109 77.8871 15.9309C77.7799 15.8509 77.5858 15.8305 77.4536 15.8853C76.0907 16.4504 76.0446 17.2527 76.324 17.8869C76.4629 18.2021 76.6828 18.4808 76.8661 18.6797C76.9581 18.7795 77.0418 18.8602 77.1031 18.9164C77.1338 18.9445 77.1589 18.9665 77.1767 18.9819C77.1857 18.9895 77.1928 18.9955 77.1978 18.9998L77.2039 19.0048L77.2057 19.0063L77.2063 19.0068L77.2066 19.007C77.2066 19.007 77.2067 19.0071 77.4546 18.9144L77.2067 19.0071C77.3079 19.0895 77.5009 19.1147 77.6378 19.0635C77.7747 19.0123 77.8035 18.904 77.7025 18.8217Z" fill="#F5A487"/>
</g>
<defs>
<clipPath id="clip0_16024_190171">
<rect width="127" height="180" fill="white" transform="translate(33)"/>
</clipPath>
</defs>
</svg>