<?xml version="1.0" encoding="utf-8"?>
<svg xmlns="http://www.w3.org/2000/svg" width="168" height="121" viewBox="0 0 168 121" fill="none">
<g clip-path="url(#clip0_16024_189944)">
<path d="M37.2062 28.1311C96.2741 -9.26427 177.627 13.1579 211.376 77.257C245.125 141.356 206.881 168.31 147.813 205.705C88.7449 243.101 44.976 189.147 11.2268 125.048C5.72721 114.602 -21.8616 65.5265 37.2062 28.1311Z" fill="#F5F9FF"/>
<g clip-path="url(#clip1_16024_189944)">
<path d="M86.9786 32.967C91.8521 32.967 95.8028 29.0142 95.8028 24.1383C95.8028 19.2623 91.8521 15.3096 86.9786 15.3096C82.1051 15.3096 78.1543 19.2623 78.1543 24.1383C78.1543 29.0142 82.1051 32.967 86.9786 32.967Z" fill="#BDBDBD"/>
<path d="M54.2567 50.707C49.0173 50.707 45.1567 52.0865 43.7945 58.857C42.2227 66.6594 35.064 126.363 35.064 126.363C35.064 126.363 36.6082 131.545 49.0173 129.338C49.0173 129.338 66.3901 84.9182 65.8386 60.0875C65.6952 53.5874 60.3234 50.707 54.2567 50.707Z" fill="#3C4C5C"/>
<path d="M41.6548 144.343C40.6345 138.34 39.5508 131.782 43.6872 116.563L101.117 116.483C101.745 119.019 99.6606 118.086 102.517 126.567C115.382 143.88 110.994 163.587 109.654 167.262L113.73 255.894C113.73 255.894 74.8368 260.347 35.1387 251.48C35.1387 251.48 43.7754 156.831 41.6548 144.346V144.343Z" fill="#56B576"/>
<path d="M74.3595 29.4187C69.9281 30.2712 66.3818 32.8784 66.4232 35.2484L66.6797 49.595C66.7238 51.965 70.3417 53.1927 74.7704 52.3374C79.1936 51.4904 82.7426 48.8777 82.6985 46.5077L82.4448 32.1611C82.4007 29.7939 78.7827 28.5662 74.3568 29.4187H74.3595Z" fill="#F1D2C5"/>
<path d="M74.059 39.9361C80.5228 38.8904 84.7695 31.8992 83.5506 24.3148L81.8216 13.6045C81.4411 11.2345 80.5697 9.08254 79.3536 7.28369L59.3198 10.52C59.0909 11.4884 59.6893 15.693 60.0643 19.0755C60.5938 23.8623 60.9633 28.6767 61.5644 31.9985C63.3707 42.0108 73.8054 39.9802 73.8054 39.9802" fill="#F1D2C5"/>
<path d="M85.0371 18.9043C87.1522 18.5622 89.1459 20.0023 89.4879 22.1185C89.8298 24.2346 88.3903 26.2238 86.2725 26.5659L80.0431 27.5702L79.0366 19.8754L85.0371 18.9043Z" fill="#F1D2C5"/>
<path d="M77.6772 14.3496C77.6772 14.3496 78.8906 22.8362 81.7695 23.7963C81.7695 23.7963 83.5371 18.5653 87.053 16.005L77.6772 14.3496Z" fill="#BDBDBD"/>
<path fill-rule="evenodd" clip-rule="evenodd" d="M66.7199 20.5747C66.8362 20.5861 66.9213 20.6898 66.91 20.8064L66.3281 26.8044L66.328 26.8054C66.3115 26.9675 66.472 27.2081 66.885 27.2933C66.8851 27.2934 66.8853 27.2934 66.8854 27.2934L68.6964 27.6602C68.8109 27.6834 68.885 27.7953 68.8619 27.9102C68.8388 28.025 68.7272 28.0993 68.6127 28.0761L66.8009 27.7092L66.8002 27.709C66.3037 27.6066 65.8577 27.2516 65.9071 26.7629C65.9071 26.7627 65.9071 26.7625 65.9071 26.7624L66.4889 20.7653C66.5002 20.6487 66.6036 20.5634 66.7199 20.5747Z" fill="#3C4C5C"/>
<path fill-rule="evenodd" clip-rule="evenodd" d="M70.3263 22.1853L70.3305 22.1808C70.3343 22.1767 70.3404 22.1702 70.3488 22.1616C70.3655 22.1442 70.3913 22.1183 70.4253 22.086C70.4934 22.0213 70.594 21.9318 70.7212 21.835C70.9777 21.6398 71.3314 21.4236 71.7375 21.3149C72.1383 21.2075 72.5883 21.2047 73.0582 21.4308C73.5324 21.6589 74.0553 22.1338 74.5698 23.0362C74.6453 23.1686 74.8137 23.2147 74.946 23.1392C75.0783 23.0637 75.1243 22.8952 75.0489 22.7628C74.4978 21.7963 73.9018 21.2244 73.2972 20.9335C72.6883 20.6406 72.0996 20.6467 71.5949 20.7818C71.0953 20.9156 70.6767 21.1756 70.3873 21.3958C70.2415 21.5068 70.1257 21.6098 70.0457 21.6858C70.0056 21.7238 69.9743 21.7552 69.9526 21.7777C69.9417 21.7889 69.9333 21.7979 69.9272 21.8044L69.92 21.8121L69.9178 21.8145L69.9171 21.8154L69.9168 21.8157C69.9167 21.8158 69.9166 21.8159 70.1171 21.9967L69.9166 21.8159C69.8147 21.9291 69.8237 22.1036 69.9369 22.2056C70.05 22.3075 70.2244 22.2983 70.3263 22.1853Z" fill="#3C4C5C"/>
<path d="M71.9746 24.4473C72.5929 24.4473 73.0941 23.9458 73.0941 23.3272C73.0941 22.7085 72.5929 22.207 71.9746 22.207C71.3562 22.207 70.855 22.7085 70.855 23.3272C70.855 23.9458 71.3562 24.4473 71.9746 24.4473Z" fill="#3C4C5C"/>
<path fill-rule="evenodd" clip-rule="evenodd" d="M63.0757 20.7412C64.0471 20.5925 65.3144 20.733 66.4557 21.8768C66.5633 21.9846 66.5632 22.1593 66.4554 22.267C66.3476 22.3746 66.173 22.3745 66.0654 22.2667C65.0754 21.2745 63.9987 21.1582 63.159 21.2866C62.7356 21.3515 62.3727 21.4791 62.1154 21.591C61.9871 21.6468 61.7881 21.7543 61.7202 21.7912C61.6862 21.8096 63.0922 20.7314 63.0757 20.7412C62.7355 20.9423 61.9104 21.3745 61.5727 21.5581L61.7204 21.791L61.7202 21.7912C61.7202 21.7912 61.7204 21.791 61.5727 21.5581L61.425 21.3251C61.2964 21.4067 61.2582 21.5772 61.3398 21.7058C61.4213 21.8344 61.5916 21.8726 61.7202 21.7912M61.5727 21.5581C61.425 21.3251 61.4252 21.3249 61.4252 21.3249L61.4255 21.3247L61.4263 21.3242L61.4286 21.3228L61.436 21.3182C61.4422 21.3144 61.4508 21.3092 61.4618 21.3027C61.4837 21.2898 61.5151 21.2718 61.5552 21.25C61.6354 21.2065 61.7508 21.1479 61.8955 21.0849C62.1842 20.9594 62.5936 20.815 63.0757 20.7412" fill="#3C4C5C"/>
<path d="M63.3901 24.4473C64.0084 24.4473 64.5097 23.9458 64.5097 23.3272C64.5097 22.7085 64.0084 22.207 63.3901 22.207C62.7718 22.207 62.2705 22.7085 62.2705 23.3272C62.2705 23.9458 62.7718 24.4473 63.3901 24.4473Z" fill="#3C4C5C"/>
<path fill-rule="evenodd" clip-rule="evenodd" d="M84.6755 20.6214L84.6171 20.3559C84.5031 20.3974 84.4369 20.5498 84.4691 20.6964C84.5013 20.843 84.6198 20.9283 84.7337 20.8869L84.7346 20.8866L84.7392 20.885C84.7434 20.8835 84.7501 20.8812 84.759 20.8782C84.7769 20.8723 84.8038 20.8636 84.8387 20.8532C84.9086 20.8324 85.01 20.8048 85.1341 20.7784C85.3831 20.7252 85.7188 20.6777 86.0713 20.6967C86.7865 20.7352 87.4966 21.0374 87.781 22.0016C87.9456 22.5594 87.9115 22.9922 87.7867 23.3354C87.6584 23.6884 87.4232 23.9761 87.1484 24.2054C86.8749 24.4338 86.5763 24.5925 86.3429 24.6944C86.2269 24.745 86.1287 24.781 86.06 24.8041C86.0257 24.8156 85.9989 24.8239 85.981 24.8293C85.972 24.8319 85.9653 24.8338 85.9611 24.835L85.9565 24.8363L85.9558 24.8365C85.8399 24.8672 85.7651 25.0131 85.7889 25.1623C85.8128 25.3115 85.9262 25.4076 86.0422 25.3769L85.9998 25.1114C86.0422 25.3769 86.0421 25.377 86.0422 25.3769L86.0433 25.3767L86.0454 25.3761L86.0525 25.3741C86.0585 25.3725 86.0669 25.37 86.0777 25.3668C86.0992 25.3604 86.13 25.3509 86.1685 25.3379C86.2455 25.312 86.3537 25.2724 86.4808 25.2169C86.7337 25.1064 87.0682 24.9302 87.3819 24.6683C87.6944 24.4075 88.0006 24.0497 88.1753 23.5692C88.3535 23.0789 88.384 22.4902 88.182 21.8058C87.8045 20.5259 86.8617 20.187 86.0893 20.1454C85.6981 20.1243 85.3313 20.1769 85.0639 20.234C84.9297 20.2626 84.8194 20.2926 84.742 20.3157C84.7033 20.3272 84.6728 20.337 84.6516 20.344C84.641 20.3475 84.6328 20.3504 84.627 20.3524L84.6201 20.3548L84.6181 20.3555L84.6175 20.3558L84.6171 20.3559C84.617 20.3559 84.6171 20.3559 84.6755 20.6214Z" fill="#F5A487"/>
<path fill-rule="evenodd" clip-rule="evenodd" d="M65.8367 19.3901C65.8367 19.3902 65.8368 19.3902 65.7421 19.6493L65.8367 19.3901C65.9797 19.4425 66.0534 19.6009 66.0011 19.744C65.9488 19.8871 65.7905 19.9607 65.6475 19.9084L65.6466 19.9081L65.6421 19.9065C65.6379 19.905 65.6313 19.9027 65.6225 19.8996C65.6048 19.8934 65.5779 19.8843 65.5428 19.8728C65.4724 19.8497 65.3687 19.8173 65.2379 19.7804C64.9761 19.7066 64.6072 19.6157 64.1806 19.5476C63.3192 19.41 62.2584 19.3714 61.3666 19.7188C61.2247 19.7741 61.0648 19.7038 61.0096 19.5618C60.9543 19.4198 61.0246 19.2599 61.1665 19.2046C62.194 18.8043 63.371 18.8595 64.2675 19.0027C64.7199 19.0749 65.11 19.1711 65.3875 19.2493C65.5264 19.2884 65.6374 19.3232 65.7143 19.3484C65.7528 19.3609 65.7827 19.3712 65.8034 19.3783C65.8137 19.3819 65.8218 19.3848 65.8274 19.3868L65.8339 19.3891L65.8358 19.3898L65.8367 19.3901Z" fill="#3C4C5C"/>
<path fill-rule="evenodd" clip-rule="evenodd" d="M70.5319 19.6786C70.2375 19.7778 70.0844 19.8802 70.0382 19.9359C69.9409 20.0531 69.7671 20.0692 69.6499 19.9719C69.5327 19.8745 69.5166 19.7006 69.6139 19.5833C69.7635 19.4032 70.043 19.2611 70.3558 19.1556C70.6832 19.0453 71.0962 18.9592 71.562 18.9195C72.4933 18.8401 73.6589 18.9445 74.8023 19.4372C74.9422 19.4975 75.0067 19.6598 74.9465 19.7998C74.8862 19.9397 74.724 20.0043 74.5841 19.944C73.538 19.4932 72.4658 19.3962 71.6088 19.4693C71.1805 19.5058 70.8117 19.5843 70.5319 19.6786Z" fill="#3C4C5C"/>
<path d="M74.448 39.8921C74.448 39.8921 69.9145 40.9598 66.4951 39.0562L66.5255 40.9598C66.5255 40.9598 71.7842 42.0276 74.4507 39.8921H74.448Z" fill="#F5A487"/>
<path d="M100.013 85.0285L101.116 101.93C100.176 104.046 100.002 109.735 100.769 111.873L100.218 116.839L43.6871 116.563C43.6871 116.563 41.481 103.32 46.1689 88.9738L48.4466 63.8617C48.4466 63.8617 48.3749 58.2086 49.7537 51.176C49.7537 51.176 52.8588 49.5841 56.9952 49.3882L100.289 56.418L100.013 85.0313V85.0285Z" fill="#9185BE"/>
<path d="M54.9022 94.4285C61.0565 94.4285 66.0456 88.3598 66.0456 80.8737C66.0456 73.3875 61.0565 67.3188 54.9022 67.3188C48.7479 67.3188 43.7588 73.3875 43.7588 80.8737C43.7588 88.3598 48.7479 94.4285 54.9022 94.4285Z" fill="#9185BE"/>
<path d="M66.6469 45.25L82.3651 44.6982C84.5712 47.1813 88.156 47.7331 88.156 47.7331L87.053 52.4233C87.0116 56.8184 83.0766 58.7166 79.3318 58.769L64.0961 58.6724C60.4726 58.7221 56.499 53.6014 56.9953 49.3885C56.9953 49.3885 61.959 49.1126 66.6469 45.25Z" fill="#F1D2C5"/>
<path d="M55.5419 49.2446C55.5419 49.2446 55.6136 66.4937 47.3408 70.6321V52.423C47.3408 52.423 51.1297 49.5205 55.5419 49.2446Z" fill="#3C4C5C"/>
<path d="M61.3329 8.96366C61.3329 8.96366 59.0386 19.8864 81.7391 17.5165L82.07 6.07227L61.3329 8.96366Z" fill="#BDBDBD"/>
<path fill-rule="evenodd" clip-rule="evenodd" d="M71.4481 30.3586C71.5627 30.2585 71.7368 30.2701 71.8371 30.3847C71.9373 30.4994 71.9257 30.6737 71.8111 30.7741L71.6295 30.5664C71.8111 30.7741 71.811 30.7742 71.8109 30.7743L71.8106 30.7745L71.8099 30.7751L71.8079 30.7769L71.8013 30.7825C71.7959 30.787 71.7883 30.7934 71.7786 30.8014C71.7592 30.8173 71.7313 30.8396 71.695 30.8672C71.6226 30.9224 71.5168 30.9987 71.3797 31.0867C71.1055 31.2626 70.7047 31.4858 70.1923 31.68C69.1657 32.0692 67.692 32.3414 65.9002 31.885C65.7526 31.8474 65.6634 31.6972 65.701 31.5495C65.7385 31.4019 65.8887 31.3126 66.0362 31.3502C67.6996 31.7739 69.0567 31.5205 69.9969 31.1641C70.4679 30.9855 70.8345 30.7809 71.082 30.6222C71.2056 30.5429 71.2993 30.4752 71.3609 30.4282C71.3918 30.4047 71.4146 30.3864 71.4292 30.3745C71.4365 30.3685 71.4417 30.3641 71.4448 30.3614L71.4479 30.3588L71.448 30.3588L71.4481 30.3586Z" fill="#F5A487"/>
<path d="M85.3985 46.6292C85.3985 46.6292 73.4527 55.2813 73.4692 55.3145C73.4858 55.3476 63.0621 47.181 63.0621 47.181C63.0621 47.181 57.376 49.2364 56.2205 49.4489C55.0651 49.6641 59.2677 66.5186 59.2677 66.5186L90.6821 65.9172L89.5377 47.421C89.5377 47.421 87.0476 47.5838 85.3958 46.6265L85.3985 46.6292Z" fill="#9185BE"/>
<path fill-rule="evenodd" clip-rule="evenodd" d="M48.315 60.7234C48.315 60.7234 48.315 60.7235 48.5874 60.6805C48.8598 60.6375 48.8598 60.6376 48.8598 60.6377L48.8601 60.6391L48.8606 60.6429L48.8628 60.6571C48.8646 60.6694 48.8673 60.6874 48.8707 60.7109C48.8773 60.7578 48.8868 60.8266 48.8979 60.9152C48.9203 61.0923 48.9495 61.3487 48.9776 61.6681C49.0337 62.3066 49.0853 63.1984 49.0672 64.2128C49.0311 66.2324 48.7182 68.7768 47.5804 70.769L47.1016 70.4952C48.1698 68.6248 48.4802 66.1934 48.5158 64.2029C48.5335 63.2122 48.483 62.3403 48.4282 61.7164C48.4008 61.4046 48.3723 61.1551 48.3507 60.9842C48.34 60.8987 48.3309 60.8329 48.3247 60.7888C48.3215 60.7667 48.3191 60.75 48.3174 60.7391L48.3156 60.7269L48.3151 60.7241L48.315 60.7234Z" fill="#25303B"/>
<path d="M100.226 74.6685C100.226 74.6685 97.5317 76.4259 98.359 80.8403" stroke="#25303B" stroke-width="2" stroke-miterlimit="10"/>
<path d="M58.8511 48.1413L63.0398 46.6294L70.1572 52.5557L67.8794 59.1799C67.5761 60.0628 66.3848 60.2008 65.8884 59.4062L58.8511 48.1385V48.1413Z" fill="#4F338B"/>
<path d="M85.3239 46.4858L90.0118 47.3135L74.2578 60.0738C73.4911 60.6945 72.3412 60.3276 72.0765 59.3785L70.1572 52.5556L85.3239 46.4858Z" fill="#4F338B"/>
<path fill-rule="evenodd" clip-rule="evenodd" d="M63.0213 82.8452C63.1696 82.8106 63.3179 82.9028 63.3525 83.0512L63.0839 83.1138C63.3525 83.0512 63.3524 83.051 63.3524 83.0508L63.3523 83.0506C63.3523 83.0505 63.3523 83.0505 63.3524 83.0507L63.3529 83.053C63.3536 83.0555 63.3547 83.0599 63.3563 83.066C63.3595 83.0783 63.3649 83.0978 63.3727 83.124C63.3884 83.1764 63.4138 83.2555 63.452 83.3574C63.5282 83.5611 63.6549 83.8556 63.8546 84.2087C64.2538 84.9146 64.9453 85.8563 66.1107 86.7779C68.4381 88.6183 72.6887 90.4037 80.3574 90.0199C80.5095 90.0123 80.639 90.1295 80.6466 90.2817C80.6542 90.4338 80.5371 90.5634 80.385 90.571C72.6195 90.9597 68.2265 89.1543 65.7688 87.2108C64.5417 86.2404 63.8052 85.2419 63.3746 84.4805C63.1595 84.1 63.0208 83.7791 62.9354 83.5508C62.8927 83.4367 62.8633 83.3457 62.8443 83.282C62.8348 83.2501 62.8278 83.225 62.8231 83.2073C62.8208 83.1984 62.819 83.1913 62.8177 83.1862L62.8162 83.1799L62.8157 83.1778L62.8155 83.1771C62.8154 83.1768 62.8154 83.1765 63.0839 83.1138L62.8154 83.1765C62.7808 83.0281 62.873 82.8797 63.0213 82.8452Z" fill="#4F338B"/>
<path fill-rule="evenodd" clip-rule="evenodd" d="M64.5071 85.3093C64.611 85.4207 64.6051 85.5953 64.4937 85.6992C61.9877 88.0401 59.1838 88.8574 57.0114 89.0896C55.9255 89.2056 54.9955 89.1758 54.3358 89.1168C54.0058 89.0872 53.743 89.0503 53.5615 89.0206C53.4708 89.0057 53.4003 88.9926 53.352 88.983C53.3278 88.9783 53.3091 88.9744 53.2962 88.9717L53.2811 88.9684L53.2768 88.9675L53.2751 88.9671C53.2749 88.967 53.2748 88.967 53.3359 88.698L53.2748 88.967C53.1263 88.9332 53.0332 88.7854 53.067 88.6368C53.1007 88.4883 53.2484 88.3952 53.3968 88.4289C53.3968 88.4289 53.3969 88.4289 53.3968 88.4289L53.3995 88.4295L53.4107 88.4319C53.421 88.4341 53.437 88.4374 53.4585 88.4416C53.5013 88.4501 53.566 88.4621 53.6507 88.476C53.8202 88.5038 54.0696 88.5389 54.385 88.5672C55.016 88.6236 55.9092 88.6524 56.9528 88.5409C59.0395 88.3179 61.7204 87.5349 64.1174 85.2959C64.2287 85.1919 64.4032 85.1979 64.5071 85.3093Z" fill="#4F338B"/>
<path fill-rule="evenodd" clip-rule="evenodd" d="M70.1808 52.2808C70.3325 52.2938 70.4451 52.4273 70.4321 52.5792L67.4236 87.8525C67.4106 88.0044 67.2771 88.1169 67.1254 88.104C66.9736 88.091 66.8611 87.9574 66.8741 87.8056L69.8826 52.5322C69.8955 52.3804 70.029 52.2678 70.1808 52.2808Z" fill="#4F338B"/>
<path d="M43.6846 116.564C43.6846 116.564 76.9217 121.919 101.114 116.484L99.2113 107.056L43.6846 116.566V116.564Z" fill="#9185BE"/>
<path fill-rule="evenodd" clip-rule="evenodd" d="M65.6779 86.4926C65.8292 86.5104 65.9374 86.6475 65.9197 86.7988L65.6458 86.7666C65.9197 86.7988 65.9197 86.7987 65.9197 86.7988L65.9178 86.8148L65.9123 86.863C65.9074 86.9058 65.9003 86.9695 65.8911 87.0531C65.8727 87.2204 65.8463 87.4672 65.8141 87.7849C65.7497 88.4202 65.6623 89.3388 65.5703 90.4705C65.3863 92.7342 65.184 95.8496 65.1107 99.2569C65.0375 102.665 65.0934 106.361 65.4247 109.786C65.7564 113.216 66.3626 116.354 67.3789 118.659C67.4404 118.799 67.3772 118.962 67.2379 119.023C67.0986 119.085 66.9358 119.021 66.8743 118.882C65.8224 116.497 65.2094 113.289 64.8757 109.839C64.5416 106.385 64.4858 102.665 64.5593 99.245C64.6329 95.8239 64.836 92.6971 65.0206 90.4258C65.113 89.29 65.2007 88.3678 65.2654 87.7292C65.2977 87.41 65.3243 87.1616 65.3429 86.9929C65.3521 86.9085 65.3594 86.8441 65.3643 86.8007L65.3699 86.7514L65.3719 86.7348C65.3719 86.7346 65.3719 86.7345 65.6431 86.7663L65.3719 86.7345C65.3897 86.5831 65.5267 86.4749 65.6779 86.4926Z" fill="#4F338B"/>
<path d="M87.254 46.7617C87.254 46.7617 97.3385 47.6722 100.306 48.4999C102.972 49.2448 110.142 50.9002 113.727 68.2817C115.908 78.8595 110.897 78.4264 104.442 78.5726L112.695 126.639C109.386 132.985 102.217 134.916 102.217 134.916C102.217 134.916 91.3904 99.7339 88.4287 85.2548C86.457 75.6067 87.254 46.7617 87.254 46.7617Z" fill="#3C4C5C"/>
<path d="M59.954 17.7927C62.5431 17.7927 64.6419 15.384 64.6419 12.4127C64.6419 9.44142 62.5431 7.03271 59.954 7.03271C57.365 7.03271 55.2661 9.44142 55.2661 12.4127C55.2661 15.384 57.365 17.7927 59.954 17.7927Z" fill="#BDBDBD"/>
<path d="M87.1862 11.3587C88.0298 7.99341 83.1129 3.85984 76.204 2.12613C69.295 0.392416 63.0103 1.71509 62.1667 5.08039C61.3231 8.4457 66.24 12.5793 73.1489 14.313C80.0579 16.0467 86.3426 14.724 87.1862 11.3587Z" fill="#DDDDDD"/>
<path d="M55.2664 12.8266C55.2664 12.8266 53.0604 -1.79593 74.6936 0.185005C94.3883 1.98937 90.0147 18.8246 90.0147 18.8246" fill="#BDBDBD"/>
<path fill-rule="evenodd" clip-rule="evenodd" d="M71.3618 28.158C71.3984 28.0101 71.5478 27.9198 71.6957 27.9564L71.6295 28.2242C71.6957 27.9564 71.6958 27.9564 71.696 27.9564L71.6963 27.9565L71.6972 27.9567L71.6995 27.9573L71.7065 27.9592C71.7122 27.9607 71.7199 27.9628 71.7294 27.9655C71.7486 27.971 71.7754 27.979 71.8089 27.99C71.8759 28.012 71.97 28.046 72.084 28.0951C72.3117 28.1933 72.6203 28.3529 72.9506 28.6003C73.6142 29.0974 74.3597 29.9453 74.715 31.3428C74.7526 31.4905 74.6634 31.6406 74.5158 31.6782C74.3682 31.7158 74.2181 31.6265 74.1805 31.4788C73.8603 30.2194 73.1967 29.474 72.62 29.042C72.3302 28.8249 72.0608 28.686 71.8657 28.6019C71.7683 28.5598 71.6897 28.5316 71.6369 28.5143C71.6105 28.5056 71.5906 28.4997 71.5781 28.4961C71.5718 28.4943 71.5674 28.4931 71.5649 28.4924L71.5626 28.4919" fill="#F5A487"/>
<path fill-rule="evenodd" clip-rule="evenodd" d="M75.4257 23.4631C75.4938 23.3268 75.6594 23.2716 75.7956 23.3397L76.8987 23.8915C77.0349 23.9597 77.0901 24.1254 77.022 24.2617C76.9539 24.398 76.7882 24.4532 76.652 24.3851L75.549 23.8333C75.4128 23.7651 75.3575 23.5994 75.4257 23.4631Z" fill="#F5A487"/>
<path fill-rule="evenodd" clip-rule="evenodd" d="M77.3215 22.153C77.3514 22.3024 77.2545 22.4478 77.1052 22.4776L75.7264 22.7535C75.577 22.7834 75.4318 22.6865 75.4019 22.5371C75.372 22.3877 75.4689 22.2423 75.6182 22.2125L76.997 21.9366C77.1463 21.9067 77.2916 22.0036 77.3215 22.153Z" fill="#F5A487"/>
<path d="M107.415 120.159L106.726 131.393C106.657 132.025 106.461 132.671 106.141 133.305C105.305 134.961 103.7 138.52 104.147 140.647C105.038 144.89 102.879 147.392 102.68 148.259C108.11 148.402 108.088 142.012 108.088 142.012C108.088 142.012 108.424 141.637 109.607 144.849C110.837 148.193 110.785 148.924 111.629 150.643C112.492 152.405 114.323 151.512 114.254 149.815C114.163 147.641 114.124 145.166 113.917 143.411C113.893 143.204 120.971 137.499 121.079 137.215C120.185 135.123 117.869 130.486 117.869 130.486C117.753 130.284 117.701 130.058 117.715 129.818L118.073 120.611L107.418 120.161L107.415 120.159Z" fill="#F1D2C5"/>
<path d="M96.7817 54.6025C91.8732 56.4372 88.7378 59.0803 89.827 65.9005C91.0817 73.7608 105.247 132.196 105.247 132.196C105.247 132.196 108.507 136.511 119.361 130.099C119.361 130.099 120.108 82.4046 110.912 59.3369C108.504 53.2975 102.465 52.4781 96.7817 54.6025Z" fill="#3C4C5C"/>
<path fill-rule="evenodd" clip-rule="evenodd" d="M103.035 98.1323L92.9819 70.8407L93.4994 70.6499L103.583 98.0244L104.77 131.408L104.219 131.428L103.035 98.1323Z" fill="#25303B"/>
<path fill-rule="evenodd" clip-rule="evenodd" d="M92.3839 73.5791L95.3593 75.8194L95.0277 76.2603L92.0522 74.02L92.3839 73.5791Z" fill="#25303B"/>
</g>
</g>
<defs>
<clipPath id="clip0_16024_189944">
<rect width="224" height="224" fill="white"/>
</clipPath>
<clipPath id="clip1_16024_189944">
<rect width="110" height="297" fill="white" transform="translate(26)"/>
</clipPath>
</defs>
</svg>