<?xml version="1.0" encoding="utf-8"?>
<svg xmlns="http://www.w3.org/2000/svg" width="168" height="121" viewBox="0 0 168 121" fill="none">
<g clip-path="url(#clip0_16024_190107)">
<path d="M37.2062 28.1311C96.2741 -9.26427 177.627 13.1579 211.376 77.257C245.125 141.356 206.881 168.31 147.813 205.705C88.7449 243.101 44.976 189.147 11.2268 125.048C5.72721 114.602 -21.8616 65.5265 37.2062 28.1311Z" fill="#F5F9FF"/>
<g clip-path="url(#clip1_16024_190107)">
<path d="M113.509 60.5611L112.96 60.4193C114.866 53.0438 108.383 48.3207 108.318 48.2724L108.646 47.8101C108.714 47.8583 115.513 52.8027 113.509 60.5611Z" fill="#25303B"/>
<path d="M75.0704 0.918945C68.0482 1.2707 64.7463 3.82942 63.1971 5.45769C58.4817 10.4134 58.1594 19.2044 57.7919 29.235C57.6647 32.7469 57.7947 34.9056 56.695 38.0799C54.931 43.1633 52.2878 44.2583 51.0411 48.0084C49.6304 52.2578 50.5351 58.3454 53.5854 61.6247C61.4528 70.0838 78.6154 54.2833 101.644 60.7737C104.471 61.5708 108.887 63.1225 110.973 61.0573C114.074 57.988 110.32 48.6325 107.863 44.037C105.474 39.572 105.144 39.8273 102.209 35.2432C98.7774 29.8847 98.6501 24.1715 98.5342 22.478C98.3759 20.1604 96.5045 5.23359 88.6398 3.18832C86.579 2.65218 84.6934 2.86493 83.5513 3.18832" fill="#25303B"/>
<path d="M49.4104 89.6177C49.4104 89.6177 18.6388 135.34 32.491 152.644C46.3431 169.948 60.1953 141.013 60.1953 141.013L59.5649 99.9121L49.4104 89.6205V89.6177Z" fill="#D28562"/>
<path d="M70.6178 48.0623L59.5615 51.733L74.3975 69.2979L97.3582 52.6975C97.3582 52.6975 86.3414 50.0905 83.7972 48.9558C81.2529 47.8211 70.615 48.0594 70.615 48.0594L70.6178 48.0623Z" fill="#F1D2C5"/>
<path d="M56.8453 69.8657C56.8453 69.8657 56.229 110.944 44.9579 111.375C33.6868 111.807 38.0035 74.2087 38.0035 74.2087L56.8453 69.8657Z" fill="#D28562"/>
<path d="M52.6728 53.9431C52.6728 53.9431 33.1978 52.9304 36.5902 90.375L49.3115 92.6444L52.6728 53.9431Z" fill="#F7AA5D"/>
<path d="M99.6512 61.3042C104.904 57.9881 111.527 58.8618 113.713 69.0087C115.895 79.1557 123.514 156.079 123.514 156.079L115.112 158.377C115.112 158.377 104.974 136.611 103.68 109.126C102.665 87.6006 92.352 66.3649 99.6541 61.3014L99.6512 61.3042Z" fill="#F1D2C5"/>
<path d="M59.4716 117.264L28.7227 195.841L48.2797 194.213C48.2797 194.213 85.0303 172.529 90.4016 135.782" fill="#F1D2C5"/>
<path d="M99.1142 114.995C99.1142 114.995 127.514 145.713 97.9523 190.417L96.0045 276.404L69.3914 276.971C69.3914 276.971 61.1819 211.968 62.9204 191.952C64.659 171.933 74.9577 128.52 74.9577 128.52L99.1113 114.997L99.1142 114.995Z" fill="#595957"/>
<path d="M99.1135 114.995L53.5993 117.105C53.5993 117.105 29.0838 181.884 26.3331 196.939C22.9803 215.301 45.9665 277.538 45.9665 277.538L69.9957 275.553C69.9957 275.553 70.1484 223.822 52.8558 200.944C52.7484 200.802 86.7993 174.517 89.9598 156.692" fill="#595957"/>
<path d="M67.8858 116.394L66.5771 128.764L67.1394 128.824L68.4481 116.454L67.8858 116.394Z" fill="#25303B"/>
<path d="M102.84 133.573C95.9934 133.224 91.3317 131.286 88.9825 127.814C86.1838 123.681 87.733 118.947 87.8009 118.745L88.3352 118.927C88.321 118.972 86.8086 123.602 89.4518 127.499C91.6993 130.813 96.2111 132.665 102.869 133.002L102.84 133.57V133.573Z" fill="#25303B"/>
<path d="M49.1272 132.256L49.1074 131.689C51.7704 131.595 53.7437 130.702 54.9762 129.034C57.5855 125.505 56.0674 119.61 56.0505 119.55L56.5961 119.406C56.6639 119.658 58.199 125.618 55.4285 129.368C54.0885 131.184 51.9683 132.154 49.1244 132.256H49.1272Z" fill="#25303B"/>
<path d="M73.6234 63.7127C72.2099 63.429 61.4674 50.0964 61.589 50.1447C57.0997 52.692 52.0932 53.892 52.0932 53.892L50.3602 70.2059L55.0417 89.0729C49.0287 105.412 40.5478 141.155 39.9824 149.665L100.01 116.731C103.615 116.674 103.194 112.232 101.854 108.811C99.8068 103.583 97.794 100.652 98.7071 96.0342C99.9453 89.7622 102.948 75.1191 102.883 74.9347C97.8251 60.8561 106.453 55.1032 106.453 55.1032C102.312 54.5558 98.5658 52.5474 95.9565 51.5148C94.7296 51.6453 75.0369 63.9963 73.6234 63.7127Z" fill="#F7AA5D"/>
<path d="M103.725 54.5869C103.725 54.5869 122.812 53.2139 118.572 94.3463L99.6312 96.0484C99.6312 96.0484 95.6621 54.5869 103.725 54.5869Z" fill="#F7AA5D"/>
<path d="M77.318 31.2408C72.7751 32.1173 69.1396 34.798 69.182 37.2348L69.4449 51.9857C69.4901 54.4224 73.1991 55.6848 77.7393 54.8054C82.2737 53.9345 85.912 51.2481 85.8668 48.8114L85.6067 34.0605C85.5615 31.6266 81.8525 30.3642 77.3152 31.2408H77.318Z" fill="#F1D2C5"/>
<path d="M77.0098 42.0545C83.6362 40.9794 87.9898 33.7911 86.7403 25.993L84.9678 14.9809C84.5776 12.5441 83.6843 10.3315 82.4376 8.48193L61.8997 11.8094C61.665 12.8051 62.2785 17.1282 62.6629 20.6061C63.2057 25.5278 63.5845 30.4778 64.2008 33.8932C66.0525 44.1877 76.7497 42.0999 76.7497 42.0999" fill="#F1D2C5"/>
<path d="M71.1866 31.2465C71.1696 31.2465 71.1527 31.2465 71.1385 31.2409L68.0345 30.6905C67.096 30.5232 66.4882 29.9558 66.5617 29.3091L66.5758 29.2495L69.4 20.7847C69.4508 20.6372 69.612 20.5549 69.759 20.606C69.906 20.6571 69.988 20.8159 69.9371 20.9663L67.1242 29.3998C67.1129 29.7147 67.5398 30.0296 68.1363 30.1345L71.2403 30.6849C71.393 30.7132 71.4976 30.8579 71.4693 31.0139C71.4467 31.1501 71.3251 31.2494 71.1923 31.2494L71.1866 31.2465Z" fill="#3C4C5C"/>
<path d="M71.9104 34.6223C71.2602 34.6223 70.5846 34.523 69.9231 34.2706C69.7761 34.2138 69.7054 34.0493 69.7591 33.9046C69.8157 33.7571 69.9796 33.6862 70.1238 33.7401C72.7133 34.7358 75.7014 33.0224 75.7297 33.0054C75.8654 32.926 76.0378 32.9714 76.117 33.1075C76.1961 33.2437 76.1509 33.4167 76.0152 33.4961C75.9134 33.5557 74.0561 34.6223 71.9104 34.6223Z" fill="#3C4C5C"/>
<path d="M77.5303 22.9122L77.3664 22.691C76.7388 21.8428 76.0179 21.3691 75.2263 21.2783C73.9655 21.1336 72.9224 22.0102 72.9139 22.0187C72.7951 22.1208 72.617 22.1066 72.5153 21.9875C72.4135 21.8683 72.4276 21.6896 72.5464 21.5875C72.5973 21.5449 73.7846 20.5436 75.2914 20.7138C76.1706 20.8131 76.9649 21.2896 77.6519 22.1321L78.5226 21.5166C78.6498 21.4258 78.8279 21.457 78.9155 21.5847C79.006 21.7123 78.9749 21.891 78.8477 21.979L77.5303 22.9094V22.9122Z" fill="#3C4C5C"/>
<path d="M74.5931 23.4284C75.2269 23.4284 75.7408 23.0728 75.7408 22.6341C75.7408 22.1955 75.2269 21.8398 74.5931 21.8398C73.9592 21.8398 73.4453 22.1955 73.4453 22.6341C73.4453 23.0728 73.9592 23.4284 74.5931 23.4284Z" fill="#3C4C5C"/>
<path d="M69.0746 22.8042C68.987 22.8042 68.9022 22.7644 68.8484 22.6907C68.2237 21.8453 67.5056 21.3716 66.7141 21.278C65.4504 21.1305 64.4044 22.0099 64.396 22.0184L64.215 22.1716L63.3245 21.4369C63.203 21.3376 63.186 21.1589 63.285 21.0369C63.3839 20.9149 63.562 20.8979 63.6836 20.9972L64.2179 21.4397C64.6193 21.1589 65.5974 20.5802 66.7706 20.7135C67.7233 20.8213 68.5742 21.3716 69.3008 22.3503C69.394 22.4751 69.3686 22.6538 69.2414 22.7474C69.1905 22.7843 69.1311 22.8042 69.0718 22.8042H69.0746Z" fill="#3C4C5C"/>
<path d="M66.0726 23.4284C66.7064 23.4284 67.2203 23.0728 67.2203 22.6341C67.2203 22.1955 66.7064 21.8398 66.0726 21.8398C65.4387 21.8398 64.9248 22.1955 64.9248 22.6341C64.9248 23.0728 65.4387 23.4284 66.0726 23.4284Z" fill="#3C4C5C"/>
<path d="M68.2007 19.4937C68.1498 19.4937 68.0989 19.4795 68.0508 19.4512C68.0254 19.437 65.5603 17.9222 63.7708 19.1164C63.6408 19.2044 63.4655 19.1675 63.3778 19.037C63.2902 18.9065 63.327 18.7306 63.457 18.6427C65.5518 17.2414 68.2374 18.8952 68.3505 18.9661C68.4834 19.0483 68.5229 19.2242 68.441 19.3575C68.3872 19.4426 68.2939 19.4909 68.2007 19.4909V19.4937Z" fill="#3C4C5C"/>
<path d="M72.3882 19.6074C72.3429 19.6074 72.3005 19.596 72.2581 19.5762C72.1196 19.5024 72.0659 19.3322 72.1394 19.1932C72.3599 18.7705 72.9564 18.3932 73.6999 18.206C74.9664 17.8883 76.3629 18.1691 77.5361 18.9748C77.6661 19.0627 77.6972 19.2386 77.6096 19.3691C77.522 19.4967 77.3439 19.5308 77.2166 19.4428C75.7381 18.4273 74.3614 18.623 73.8356 18.7563C73.1769 18.9209 72.7529 19.2357 72.6369 19.4542C72.5861 19.5506 72.4871 19.6074 72.3853 19.6074H72.3882Z" fill="#3C4C5C"/>
<path d="M77.4089 42.0089C77.4089 42.0089 72.7613 43.1067 69.2559 41.1494L69.287 43.1068C69.287 43.1068 74.678 44.2046 77.4117 42.0089H77.4089Z" fill="#F5A487"/>
<path d="M51.0069 54.0678L55.5301 52.6494C55.2474 54.0678 52.9858 65.982 54.3993 86.69C54.3993 86.69 48.4626 70.5207 51.0069 54.0678Z" fill="#D28562"/>
<path d="M78.5481 24.5062C78.7667 24.5062 78.9439 24.3284 78.9439 24.1091C78.9439 23.8897 78.7667 23.7119 78.5481 23.7119C78.3295 23.7119 78.1523 23.8897 78.1523 24.1091C78.1523 24.3284 78.3295 24.5062 78.5481 24.5062Z" fill="#3C4C5C"/>
<path d="M79.7525 33.9129C79.6508 33.9129 79.5546 33.859 79.5038 33.7625C78.3758 31.652 75.905 31.652 75.8881 31.6577H75.8852C75.7298 31.6577 75.6054 31.5329 75.6025 31.3768C75.6025 31.2208 75.7269 31.0932 75.8824 31.0903C76.0011 31.0903 78.7179 31.0875 80.0041 33.4959C80.0776 33.6349 80.0267 33.8051 79.8882 33.8788C79.8458 33.9015 79.8006 33.9129 79.7554 33.9129H79.7525Z" fill="#F5A487"/>
<path d="M73.3296 25.1445C73.29 25.1445 73.2476 25.136 73.2081 25.1162C72.5805 24.8183 72.179 24.3049 72.1621 24.285C72.066 24.1602 72.0886 23.9843 72.213 23.8879C72.3373 23.7914 72.5126 23.8141 72.6087 23.9389C72.6144 23.9446 72.948 24.3673 73.4483 24.6056C73.5897 24.6736 73.6491 24.841 73.584 24.9828C73.536 25.085 73.4342 25.1445 73.3268 25.1445H73.3296Z" fill="#F5A487"/>
<path d="M112.373 117.415C112.232 117.415 112.107 117.307 112.093 117.162C111.531 111.917 107.468 109.943 107.429 109.926C107.287 109.861 107.228 109.69 107.293 109.549C107.358 109.407 107.528 109.344 107.669 109.412C107.847 109.497 112.062 111.529 112.656 117.103C112.673 117.259 112.56 117.398 112.404 117.415C112.393 117.415 112.384 117.415 112.373 117.415Z" fill="#F5A487"/>
<path d="M51.8551 106.831C51.8551 106.831 38.851 148.53 39.9818 149.665C41.1126 150.8 100.612 163.956 113.265 156.669C113.265 156.669 109.992 120.234 100.569 105.73L51.8523 106.831H51.8551Z" fill="#F7AA5D"/>
<path d="M56.5197 94.0654C61.2817 94.0654 65.142 89.3028 65.142 83.4277C65.142 77.5527 61.2817 72.79 56.5197 72.79C51.7578 72.79 47.8975 77.5527 47.8975 83.4277C47.8975 89.3028 51.7578 94.0654 56.5197 94.0654Z" fill="#F7AA5D"/>
<path d="M51.0606 64.8981C51.462 64.8499 52.2875 64.6457 53.9808 64.0074C54.549 63.7947 55.1455 63.5621 55.7533 63.3209C56.1491 63.1649 56.5986 63.1706 56.9802 63.3606C57.9471 63.84 58.0799 64.6967 58.046 65.4712C58.0347 65.7633 57.8622 66.0243 57.605 66.1633C55.3689 67.3547 53.3221 68.4611 52.5249 68.9461C51.9793 68.7703 51.0577 64.918 51.0606 64.8981Z" fill="#F1D2C5"/>
<path d="M41.9609 72.7901C42.2323 72.2285 42.204 70.2768 42.2605 69.6329C42.4047 67.9535 42.8796 64.4048 44.3808 62.7311C47.3745 59.3895 46.8148 56.567 47.0975 55.7642C51.8666 57.3612 48.4997 62.8134 48.4997 62.8134C48.4997 62.8134 48.5929 63.2417 51.2984 60.8703C52.1634 60.11 53.102 59.2533 54.0292 58.3966C55.242 57.8123 56.3813 58.7314 56.6187 59.9455C56.6809 60.2689 56.5735 60.6036 56.3643 60.8589C55.4455 61.9794 54.6596 62.9524 54.2695 63.463C54.1395 63.6332 57.2718 70.7477 57.2152 71.0257C55.3466 72.5292 50.9167 75.7573 50.9167 75.7573C50.7103 75.8907 50.5464 76.0694 50.4361 76.2793L50.4418 81.8676L40.8301 78.1799L41.9609 72.7901Z" fill="#F1D2C5"/>
<path d="M49.0254 69.4455C49.4269 69.4171 50.258 69.2526 51.974 68.6994C53.6504 68.1576 54.6059 67.4853 56.3699 66.8641C56.5537 66.7988 57.5177 66.4017 58.117 66.8782C58.9679 67.5534 59.1601 68.0243 58.8576 69.0824C58.7813 69.3462 58.5947 69.5674 58.346 69.6838C55.1402 71.1815 51.4255 72.946 50.2665 73.5786C49.735 73.3772 49.0198 69.4625 49.0254 69.4426V69.4455Z" fill="#F1D2C5"/>
<path d="M50.7128 72.2027C50.97 72.1772 51.4958 72.0637 52.5644 71.7148C54.7751 70.9943 56.2706 69.6922 57.4155 70.2482C58.6877 70.8666 58.2438 72.2396 57.26 72.6765C56.0868 73.1956 52.2252 74.9657 51.0492 75.5926C50.6902 75.4962 50.7071 72.2141 50.7099 72.2027H50.7128Z" fill="#F1D2C5"/>
<path d="M50.9563 75.2806C50.9563 75.2806 54.8716 112.759 44.915 114.257C32.0438 116.195 38.7522 81.9214 42.2746 71.8057" fill="#F1D2C5"/>
<path d="M85.3469 98.7775C78.5056 98.7775 73.7535 94.3324 73.6856 94.27C73.5725 94.1622 73.5697 93.9835 73.6771 93.87C73.7846 93.7565 73.9627 93.7537 74.0757 93.8615C74.1634 93.9438 82.9496 102.145 93.7458 95.8075C93.8787 95.728 94.054 95.7734 94.1331 95.9096C94.2123 96.0458 94.167 96.2188 94.0313 96.2982C90.9273 98.1222 87.9816 98.7804 85.3469 98.7804V98.7775Z" fill="#F39125"/>
<path d="M64.2939 10.3824C64.2939 10.3824 76.7694 19.3606 84.9676 20.4953L91.2633 30.9628C91.2633 30.9628 99.3484 12.3681 92.281 5.27635C85.2135 -1.81544 69.9479 -3.2338 64.2939 10.3824Z" fill="#25303B"/>
<path d="M66.8384 8.12159C66.8384 8.12159 65.0037 16.541 61.258 20.9776C61.2552 20.9804 53.6563 0.0170898 79.752 0.0170898" fill="#25303B"/>
<path d="M88.2667 20.4301C90.435 20.0784 92.4789 21.5591 92.8295 23.7349C93.18 25.9106 91.7043 27.9559 89.5332 28.3077L83.1471 29.3402L82.1152 21.4286L88.2667 20.4301Z" fill="#F1D2C5"/>
<path d="M89.1713 27.0566C89.0469 27.0566 88.9338 26.9743 88.8999 26.8495C88.8575 26.6991 88.948 26.5431 89.0978 26.5006C89.1091 26.4977 90.2371 26.1743 90.7375 25.2751C91.0088 24.79 91.0512 24.2142 90.8675 23.5646C90.7148 23.0284 90.4321 22.6511 90.0222 22.4441C89.1515 22.0015 87.9727 22.4327 87.9614 22.4356C87.8172 22.4895 87.6532 22.4157 87.5967 22.2682C87.543 22.1207 87.6165 21.959 87.7606 21.9023C87.8172 21.8796 89.177 21.3803 90.271 21.9335C90.8279 22.2143 91.2096 22.7107 91.4074 23.4057C91.6364 24.2085 91.5742 24.9319 91.2265 25.5531C90.6046 26.6594 89.3013 27.0282 89.2448 27.0452C89.2194 27.0509 89.1939 27.0566 89.1713 27.0566Z" fill="#F5A487"/>
<path d="M82.9863 17.6558C82.9863 17.6558 83.0089 22.4385 85.2479 24.1802C85.2479 24.1802 84.6825 19.9251 87.7554 18.6061L82.9863 17.6558Z" fill="#25303B"/>
<path d="M74.1259 16.8673C68.7038 16.8673 66.5949 11.1683 66.5723 11.1031L67.1037 10.9102C67.1094 10.9272 67.7539 12.6888 69.2268 14.1809C71.1746 16.1552 73.5916 16.7566 76.4101 15.9652L76.5628 16.5127C75.6864 16.7595 74.8751 16.8673 74.1259 16.8673Z" fill="#25303B"/>
<path d="M50.7676 49.2086C49.3088 42.7749 57.1141 40.6644 57.1904 40.6445L57.3318 41.1949C57.312 41.2005 55.4434 41.697 53.7755 42.9309C51.5845 44.5507 50.7591 46.6215 51.316 49.0838L50.7647 49.2086H50.7676Z" fill="#25303B"/>
</g>
</g>
<defs>
<clipPath id="clip0_16024_190107">
<rect width="224" height="224" fill="white"/>
</clipPath>
<clipPath id="clip1_16024_190107">
<rect width="102" height="321" fill="white" transform="translate(26)"/>
</clipPath>
</defs>
</svg>