<?xml version="1.0" encoding="UTF-8"?>
<svg id="Calque_1" data-name="Calque 1" xmlns="http://www.w3.org/2000/svg" viewBox="0 0 1082.51 681.05">
  <defs>
    <style>
      .cls-1 {
        fill: #fff;
      }

      .cls-2 {
        fill: #25303b;
      }

      .cls-3 {
        fill: #1d1d1b;
      }
    </style>
  </defs>
  <rect class="cls-3" x="120.35" y="120.67" width="842.05" height="439.68" rx="28.34" ry="28.34"/>
  <g>
    <path class="cls-1" d="m409.61,299.37c-9.03,0-17.11-1.34-24.23-4.02-7.12-2.68-13.15-6.49-18.09-11.43-4.94-4.94-8.71-10.93-11.32-17.98-2.61-7.05-3.91-14.95-3.91-23.7s1.38-16.72,4.13-24.33c2.75-7.62,6.73-14.25,11.95-19.89,5.22-5.64,11.56-10.08,19.04-13.33,7.48-3.24,15.94-4.87,25.39-4.87,6.63,0,12.34.53,17.14,1.59,4.79,1.06,9.24,2.51,13.33,4.34v25.18c-4.52-2.4-9.07-4.13-13.65-5.18-4.59-1.06-9.07-1.59-13.44-1.59-10.02,0-18.16,2.89-24.44,8.67-6.28,5.79-9.42,14.67-9.42,26.66s3.14,20.98,9.42,26.98c6.27,6,15.06,8.99,26.34,8.99,4.09,0,8.22-.49,12.38-1.48,4.16-.98,8.28-2.4,12.38-4.23v22.22c-3.67,2.26-8.15,4.06-13.44,5.4-5.29,1.34-11.82,2.01-19.57,2.01Z"/>
    <path class="cls-1" d="m515.19,300.43c-8.61,0-16.47-1.31-23.59-3.91-7.12-2.61-13.22-6.42-18.3-11.43-5.08-5.01-8.99-11.14-11.74-18.41-2.75-7.26-4.13-15.55-4.13-24.86s1.34-17.1,4.02-24.65c2.68-7.54,6.59-14.1,11.74-19.68,5.15-5.57,11.46-9.91,18.94-13.01,7.47-3.1,15.94-4.66,25.39-4.66,8.6,0,16.43,1.31,23.49,3.91,7.05,2.61,13.08,6.45,18.09,11.53,5,5.08,8.89,11.29,11.64,18.62,2.75,7.34,4.13,15.73,4.13,25.18s-1.38,17.53-4.13,25.07c-2.75,7.55-6.66,14-11.74,19.36-5.08,5.36-11.32,9.52-18.73,12.48-7.41,2.96-15.76,4.44-25.07,4.44Zm1.06-23.06c9.45,0,16.79-3.42,22.01-10.26,5.22-6.84,7.83-15.9,7.83-27.19s-2.61-20.03-7.83-26.66c-5.22-6.63-12.41-9.94-21.58-9.94s-16.5,3.32-22.01,9.94c-5.5,6.63-8.25,15.66-8.25,27.08s2.64,19.93,7.93,26.77c5.29,6.84,12.59,10.26,21.9,10.26Z"/>
    <path class="cls-1" d="m743.49,297.47v-66.65c0-9.59-1.9-16.26-5.71-20-3.81-3.74-8.96-5.61-15.45-5.61-4.52,0-8.67,1.13-12.48,3.39-3.81,2.26-7.48,5.85-11,10.79v78.08h-28.78v-66.65c0-9.59-1.9-16.26-5.71-20-3.81-3.74-8.96-5.61-15.45-5.61-4.52,0-8.57,1.02-12.17,3.07-3.6,2.05-7.09,5.33-10.47,9.84v79.34h-28.78v-82.1l-4.87-32.37h28.56l2.96,15.02c4.23-5.36,9.2-9.73,14.92-13.12,5.71-3.39,12.73-5.08,21.05-5.08s15.76,1.73,21.9,5.18c6.14,3.46,10.61,8.78,13.44,15.97,4.37-6.21,9.55-11.28,15.55-15.23,5.99-3.95,13.51-5.92,22.53-5.92,11.71,0,21.09,3.28,28.14,9.84,7.05,6.56,10.58,16.68,10.58,30.36v77.44h-28.78Z"/>
    <path class="cls-1" d="m901.76,183v82.1l4.87,32.37h-28.78l-2.96-15.02c-4.65,5.36-10.09,9.7-16.29,13.01-6.21,3.31-13.4,4.97-21.58,4.97-11.71,0-21.13-3.28-28.25-9.84-7.12-6.56-10.69-16.61-10.69-30.15v-77.44h28.99v66.44c0,9.59,1.87,16.29,5.61,20.1,3.74,3.81,8.85,5.71,15.34,5.71,4.51,0,8.85-.99,13.01-2.96,4.16-1.97,8.15-5.22,11.95-9.73v-79.56h28.78Z"/>
    <path class="cls-1" d="m347.61,382.54h18.2l4.44-33.85h23.49v33.85h31.95v21.79h-31.95v51.63c.14,7.62,1.55,12.98,4.23,16.08,2.68,3.1,6.77,4.66,12.27,4.66,3.39,0,6.73-.39,10.05-1.16,3.31-.77,6.31-1.59,8.99-2.43v21.37c-1.41.71-3.17,1.38-5.29,2.01-2.12.63-4.37,1.16-6.77,1.59-2.4.42-4.83.77-7.3,1.06-2.47.28-4.76.42-6.88.42-7.05,0-13.01-.85-17.88-2.54-4.87-1.69-8.78-4.23-11.74-7.62-2.96-3.39-5.05-7.58-6.24-12.59-1.2-5-1.8-10.82-1.8-17.46v-55.01h-17.77v-21.79Z"/>
    <path class="cls-1" d="m446.85,497.01v-114.47h28.78v114.47h-28.78Z"/>
    <path class="cls-1" d="m492.76,382.54h18.2l4.44-33.85h23.49v33.85h31.95v21.79h-31.95v51.63c.14,7.62,1.55,12.98,4.23,16.08,2.68,3.1,6.77,4.66,12.27,4.66,3.39,0,6.73-.39,10.05-1.16,3.31-.77,6.31-1.59,8.99-2.43v21.37c-1.41.71-3.17,1.38-5.29,2.01-2.12.63-4.37,1.16-6.77,1.59-2.4.42-4.83.77-7.3,1.06-2.47.28-4.76.42-6.88.42-7.05,0-13.01-.85-17.88-2.54-4.87-1.69-8.78-4.23-11.74-7.62s-5.05-7.58-6.24-12.59c-1.2-5-1.8-10.82-1.8-17.46v-55.01h-17.77v-21.79Z"/>
    <path class="cls-1" d="m592.84,497.01v-82.1l-4.87-32.37h28.56l3.17,15.66c4.09-5.64,8.89-10.19,14.39-13.65,5.5-3.45,12.06-5.18,19.68-5.18,2.4,0,4.87.21,7.41.64v26.87c-4.23-.85-8.11-1.27-11.64-1.27-11.29,0-20.6,4.52-27.93,13.54v77.86h-28.78Z"/>
    <path class="cls-1" d="m724.45,499.34c-18.48,0-32.62-5.01-42.42-15.02-9.81-10.01-14.71-24.12-14.71-42.32,0-9.31,1.3-17.81,3.91-25.5,2.61-7.69,6.31-14.25,11.11-19.68,4.79-5.43,10.61-9.66,17.46-12.69,6.84-3.03,14.42-4.55,22.75-4.55,18.34,0,31.7,5.71,40.1,17.14,8.39,11.43,12.59,28,12.59,49.72h-78.71c1.13,9.73,4.55,16.86,10.26,21.37,5.71,4.52,13.51,6.77,23.38,6.77,6.77,0,13.72-.95,20.84-2.86,7.12-1.9,14.07-5.11,20.84-9.63v23.27c-6.35,4.52-13.58,7.97-21.69,10.37-8.11,2.4-16.68,3.6-25.71,3.6Zm-2.12-97.54c-6.63,0-12.24,2.08-16.82,6.24-4.59,4.16-7.51,10.9-8.78,20.21h48.24c-.28-3.95-.88-7.54-1.8-10.79-.92-3.24-2.26-6.03-4.02-8.36-1.77-2.33-4.02-4.13-6.77-5.4-2.75-1.27-6.1-1.9-10.05-1.9Z"/>
    <path class="cls-1" d="m832.99,499.55c-7.19,0-14.25-.78-21.16-2.33-6.91-1.55-13.33-3.74-19.25-6.56v-24.97c8.04,3.53,15.45,6.14,22.22,7.83,6.77,1.69,13.61,2.54,20.52,2.54,6.49,0,11.71-.92,15.66-2.75,3.95-1.83,5.92-4.79,5.92-8.89,0-2.54-.88-4.55-2.64-6.03-1.77-1.48-3.95-2.68-6.56-3.6-2.61-.92-5.54-1.62-8.78-2.12-3.25-.49-6.35-1.02-9.31-1.59-5.22-.99-10.12-2.29-14.71-3.91-4.58-1.62-8.57-3.74-11.95-6.35-3.39-2.61-6.07-5.85-8.04-9.73-1.98-3.88-2.96-8.57-2.96-14.07s1.27-10.75,3.81-15.34c2.54-4.58,5.99-8.53,10.37-11.85,4.37-3.31,9.42-5.85,15.13-7.62,5.71-1.76,11.74-2.64,18.09-2.64,7.33,0,14.6.74,21.79,2.22,7.19,1.48,13.33,3.63,18.41,6.45v24.97c-7.19-3.67-13.89-6.31-20.1-7.93-6.21-1.62-12.13-2.43-17.77-2.43-6.77,0-11.99.99-15.66,2.96-3.67,1.98-5.5,4.8-5.5,8.46,0,2.26.77,4.13,2.33,5.61,1.55,1.48,3.49,2.72,5.82,3.7,2.33.99,4.94,1.8,7.83,2.43,2.89.63,5.75,1.16,8.57,1.59,3.39.57,7.33,1.34,11.85,2.33,4.51.99,8.85,2.64,13.01,4.97,4.16,2.33,7.65,5.57,10.47,9.73,2.82,4.16,4.23,9.7,4.23,16.61,0,6.21-1.45,11.67-4.34,16.4-2.89,4.73-6.7,8.71-11.43,11.95-4.73,3.25-10.19,5.71-16.4,7.41-6.21,1.69-12.7,2.54-19.47,2.54Z"/>
  </g>
  <g>
    <g>
      <path class="cls-1" d="m270.89,354.96h2.08v-.05c-1.61-1.06-2.41-2.58-2.41-4.57,0-.88.18-1.67.55-2.38.37-.71.98-1.21,1.86-1.5-.77-.47-1.36-1.1-1.78-1.87s-.63-1.63-.63-2.56c0-.71.08-1.35.23-1.93.16-.57.4-1.07.72-1.48.33-.41.75-.73,1.27-.96.52-.23,1.15-.34,1.87-.34h10.37v2.33h-9.28c-.44,0-.85.04-1.23.11-.38.07-.72.21-1,.41-.28.2-.51.48-.67.83-.16.36-.25.82-.25,1.38,0,1.15.33,2.05.98,2.71.66.66,1.53.98,2.63.98h8.81v2.33h-9.28c-.46,0-.88.04-1.26.12-.38.08-.72.22-1,.42-.28.2-.5.47-.66.81-.15.34-.23.77-.23,1.3,0,.67.14,1.25.41,1.74s.6.88.98,1.18c.38.3.78.52,1.19.66.41.14.75.21,1.03.21h8.81v2.33h-14.14v-2.19Z"/>
      <path class="cls-1" d="m275.06,334.42c-.9-.29-1.69-.73-2.35-1.31-.67-.58-1.19-1.3-1.57-2.16-.38-.86-.57-1.84-.57-2.95s.19-2.12.57-2.97c.38-.85.91-1.56,1.57-2.15.67-.58,1.45-1.02,2.35-1.31.9-.29,1.87-.44,2.91-.44s2.01.15,2.9.44c.89.29,1.67.73,2.34,1.31.67.58,1.19,1.3,1.56,2.15.37.85.56,1.84.56,2.97s-.19,2.1-.56,2.95c-.37.86-.89,1.58-1.56,2.16-.67.58-1.44,1.02-2.34,1.31-.89.29-1.86.44-2.9.44s-2.01-.15-2.91-.44Zm5.2-2.37c.67-.23,1.22-.54,1.67-.94.45-.4.79-.87,1.03-1.41.24-.54.36-1.11.36-1.71s-.12-1.17-.36-1.71c-.24-.54-.58-1.01-1.03-1.41-.45-.4-1-.72-1.67-.94-.67-.23-1.43-.34-2.28-.34s-1.62.11-2.28.34c-.67.23-1.23.54-1.68.94-.46.4-.8.87-1.04,1.41-.24.54-.36,1.11-.36,1.71s.12,1.17.36,1.71c.24.54.58,1.01,1.04,1.41.46.4,1.02.72,1.68.94.67.23,1.43.34,2.28.34s1.62-.11,2.28-.34Z"/>
      <path class="cls-1" d="m265.5,316.25h7.3v-.05c-.78-.38-1.35-.98-1.71-1.81-.36-.82-.53-1.72-.53-2.71,0-1.09.2-2.05.6-2.86.4-.81.94-1.49,1.63-2.02.68-.54,1.47-.94,2.37-1.22s1.84-.41,2.84-.41,1.95.13,2.85.4c.89.26,1.67.67,2.34,1.2.67.54,1.19,1.21,1.57,2.02.38.81.57,1.76.57,2.83,0,.35-.04.73-.11,1.16-.07.43-.19.85-.36,1.27-.16.42-.39.82-.67,1.19-.28.37-.63.69-1.05.94v.05h1.89v2.33h-19.53v-2.33Zm10.41-8.36c-.63.17-1.19.44-1.68.79-.49.36-.88.81-1.18,1.37-.29.56-.44,1.21-.44,1.96s.16,1.45.47,2c.31.55.72.99,1.22,1.34.5.35,1.07.6,1.71.75.64.16,1.29.23,1.94.23.69,0,1.36-.08,2.01-.25.65-.16,1.22-.42,1.71-.78.49-.36.89-.82,1.19-1.38s.45-1.25.45-2.05-.15-1.47-.47-2.01c-.31-.54-.72-.97-1.23-1.3-.51-.33-1.09-.57-1.75-.71-.66-.15-1.33-.22-2.02-.22-.66,0-1.3.09-1.93.26Z"/>
      <path class="cls-1" d="m268.34,302.57h-2.84v-2.33h2.84v2.33Zm2.54-2.33h14.14v2.33h-14.14v-2.33Z"/>
      <path class="cls-1" d="m265.5,294.44h19.53v2.33h-19.53v-2.33Z"/>
      <path class="cls-1" d="m268.34,290.97h-2.84v-2.33h2.84v2.33Zm2.54-2.33h14.14v2.33h-14.14v-2.33Z"/>
      <path class="cls-1" d="m270.89,279.26h2.05v2.82h8.78c.27,0,.49-.02.66-.07.16-.04.29-.13.38-.26.09-.13.15-.3.18-.53.03-.23.04-.52.04-.89v-1.07h2.05v1.78c0,.6-.04,1.12-.12,1.55-.08.43-.23.78-.45,1.04s-.53.46-.93.59c-.4.13-.93.19-1.59.19h-9v2.41h-2.05v-2.41h-4.24v-2.33h4.24v-2.82Z"/>
      <path class="cls-1" d="m284.13,266.95c.8,1.06,1.2,2.39,1.2,3.99,0,1.13-.18,2.11-.55,2.94-.36.83-.88,1.53-1.53,2.09-.66.57-1.44.99-2.35,1.27-.91.28-1.91.44-2.98.48-1.08,0-2.06-.16-2.95-.49-.89-.33-1.67-.79-2.33-1.38-.66-.59-1.17-1.3-1.53-2.11-.36-.81-.55-1.7-.55-2.67,0-1.26.26-2.3.78-3.13.52-.83,1.18-1.5,1.98-2,.8-.5,1.68-.85,2.63-1.04.95-.19,1.85-.27,2.71-.23v10.59c.62.02,1.21-.05,1.76-.22.56-.16,1.05-.43,1.48-.79.43-.36.77-.83,1.03-1.4.26-.57.38-1.23.38-2,0-.98-.23-1.79-.68-2.42-.46-.63-1.15-1.04-2.08-1.24v-2.3c1.59.31,2.78.99,3.58,2.05Zm-9.08.56c-.49.21-.92.49-1.27.85-.36.36-.64.78-.85,1.26s-.31,1.02-.31,1.6.11,1.15.31,1.63.5.9.86,1.24c.37.35.79.62,1.27.82.48.2,1,.32,1.55.36v-8.13c-.55.04-1.07.16-1.56.37Zm-11.08,2.89l4.43,2.63v-1.75l-4.43-3.86v2.98Z"/>
      <path class="cls-1" d="m281.87,260.77c.36-.22.64-.51.85-.86.21-.36.36-.76.45-1.2.09-.45.14-.91.14-1.38,0-.36-.03-.75-.08-1.15-.05-.4-.15-.77-.3-1.11-.15-.34-.36-.62-.64-.83-.28-.22-.64-.33-1.08-.33-.6,0-1.06.23-1.37.68-.31.46-.56,1.03-.75,1.71-.19.68-.36,1.43-.52,2.23-.15.8-.37,1.55-.66,2.23-.28.68-.68,1.25-1.19,1.71-.51.46-1.22.68-2.13.68-.71,0-1.32-.16-1.83-.48-.51-.32-.92-.73-1.24-1.23-.32-.5-.56-1.07-.71-1.7-.15-.63-.23-1.25-.23-1.87,0-.8.07-1.54.21-2.22.14-.67.37-1.27.71-1.79.34-.52.79-.93,1.37-1.24.57-.31,1.29-.49,2.15-.55v2.33c-.46.04-.83.16-1.14.36-.3.2-.54.46-.72.77-.18.31-.31.65-.4,1.03-.08.37-.12.75-.12,1.14,0,.35.03.7.08,1.05.05.36.15.68.29.97.14.29.32.53.55.71.23.18.52.27.89.27.4,0,.73-.14,1-.42.26-.28.48-.64.66-1.08.17-.44.32-.93.44-1.48.12-.55.24-1.09.37-1.64.13-.58.28-1.15.47-1.71.18-.56.42-1.05.72-1.48.3-.43.68-.77,1.14-1.04.46-.26,1.02-.4,1.7-.4.86,0,1.57.18,2.13.53.57.36,1.02.82,1.37,1.4.35.57.59,1.22.72,1.94.14.72.21,1.44.21,2.15,0,.78-.08,1.53-.25,2.24-.16.71-.43,1.34-.81,1.89-.37.55-.87.98-1.48,1.31-.61.33-1.35.51-2.23.55v-2.33c.51-.02.94-.14,1.3-.36Z"/>
    </g>
    <g>
      <path class="cls-1" d="m229.95,491.85v6.18l-7.18-5.4v-7.34l7.18-5.41v6.18l-3.87,2.9,3.87,2.89Zm2.71,1.21v-8.21h25.05v8.21h-25.05Z"/>
      <rect class="cls-1" x="223.24" y="472.65" width="34.47" height="8.21"/>
      <path class="cls-1" d="m247.18,462.28c3.43-.15,5.69-2.13,5.69-5.61,0-1.97-.92-3.9-2.76-4.68v-7.68c5.8,1.49,8.31,6.87,8.31,12.46,0,8.16-4.92,13.71-13.32,13.71-7.67,0-13.18-6.13-13.18-13.51,0-8.98,6.76-13.46,15.25-13.09v18.4m-4.58-10.19c-2.81.14-5.12,2.13-5.12,4.87,0,2.89,2.07,4.83,5.12,5.31v-10.19Z"/>
      <path class="cls-1" d="m257.7,423.96v3.23h-2.66v.08c2.16,1.06,3.12,3.58,3.12,6.28,0,6.06-4.8,9.06-10.35,9.06s-10.24-2.97-10.24-8.99c0-2.01.76-4.9,3.08-6.35v-.08h-10.12v-3.23h27.17m-2.4,9.14c0-4.34-3.72-6.01-7.41-6.01-3.89,0-7.46,1.75-7.46,6.2s3.76,5.9,7.61,5.9,7.26-1.91,7.26-6.09"/>
      <path class="cls-1" d="m251.46,404.1c4.34.87,6.7,3.99,6.7,8.4,0,6.28-4.34,9.25-10.35,9.45-5.9,0-10.24-3.89-10.24-9.26,0-6.96,6.51-9.09,11.27-8.9v14.73c3.43.11,6.46-1.83,6.46-6.12,0-2.66-1.3-4.52-3.84-5.09v-3.2m-5.48,3.12c-3.08.15-5.55,2.47-5.55,5.67,0,3.39,2.54,5.4,5.55,5.63v-11.29Z"/>
      <polygon class="cls-1" points="223.24 401.7 223.24 376.31 230.43 376.31 230.43 392.73 237.48 392.73 237.48 378.53 244.43 378.53 244.43 392.73 257.7 392.73 257.7 401.7 223.24 401.7"/>
      <path class="cls-1" d="m232.65,374.67v-7.97h4.39v-.09c-3.18-1.21-4.88-4-4.88-7.54,0-.62.06-1.29.2-1.93h7.47c-.29,1.06-.48,2.03-.48,3.14,0,4.05,2.8,6.18,5.95,6.18h12.4v8.2h-25.05Z"/>
      <path class="cls-1" d="m240.37,357.15c-3.27-.15-5.4-1.69-6.71-3.9-1.24-2.22-1.73-5.11-1.73-7.97,0-5.94,1.31-11.68,8.4-11.68h10.95c2.12,0,4.44,0,6.42-.97v8.26c-.78.29-1.55.39-2.37.48,2.22,2.12,3.08,5.26,3.08,8.26,0,4.78-2.41,8.54-7.58,8.54-8.15,0-7.52-8.88-8.68-14.58-.29-1.4-.77-2.17-2.31-2.17-1.88,0-2.6,2.26-2.6,3.95,0,2.27,1.02,3.72,3.13,4.1v7.67m12.98-10.62c0-3.9-2.22-5.21-7.38-5.02.72,1.16.87,3.28,1.35,5.07.43,1.83,1.21,3.38,3.19,3.38s2.85-1.58,2.85-3.43"/>
      <path class="cls-1" d="m232.65,330.61v-7.97h3.43v-.11c-2.56-1.49-4.15-4.87-4.15-7.86,0-8.35,6.08-9.03,9.7-9.03h16.07v8.2h-12.11c-3.43,0-6.9-.38-6.9,4.11,0,3.08,2.6,4.44,5.35,4.44h13.67v8.21h-25.05Z"/>
      <path class="cls-1" d="m241.83,286.29c-2.12.05-3.62,1.94-3.62,4.01,0,4.59,3.91,5.31,7.38,5.31,3.24,0,6.56-1.4,6.56-4.87,0-2.84-1.64-4.31-4.29-4.68v-7.96c6.7.72,10.56,5.93,10.56,12.6,0,7.52-5.16,13.13-12.83,13.13s-13.66-5.07-13.66-13.13c0-6.23,3.28-11.79,9.9-12.36v7.96Z"/>
      <path class="cls-1" d="m247.18,269.4c3.43-.15,5.69-2.13,5.69-5.6,0-1.97-.92-3.9-2.76-4.67v-7.69c5.8,1.51,8.31,6.86,8.31,12.46,0,8.15-4.92,13.71-13.32,13.71-7.67,0-13.18-6.14-13.18-13.51,0-8.99,6.76-13.47,15.25-13.08v18.39m-4.58-10.18c-2.81.14-5.12,2.12-5.12,4.88,0,2.9,2.07,4.82,5.12,5.3v-10.18Z"/>
    </g>
    <g>
      <rect class="cls-1" x="223.24" y="179.74" width="61.79" height="61.79" rx="14.06" ry="14.06"/>
      <g>
        <path class="cls-2" d="m257.91,195.54c-1.47,3.16-4.68,4.8-7.17,3.64-2.49-1.15-3.32-4.66-1.86-7.82,1.47-3.17,4.68-4.79,7.17-3.64,2.49,1.15,3.32,4.66,1.86,7.82"/>
        <path class="cls-2" d="m262,216.6c-5.32-7.38-11.81-3.62-16.19,2.31-3.45,4.67-6.38,8.73-10,13.68-.84,1.15-.19,1.56.98.85s2.3-1.73,3.4-3.24c1.49-2.04,5.22-7.13,7.57-10.35,2.1-2.89,5.23-2.6,7.39.39,2.5,3.46,5.58,7.79,8.32,11.54,1.9,2.6,7.63,2.2,10.13,2.02.45-.03.59-.36.37-.66-1.57-2.16-7.04-9.69-11.98-16.54Z"/>
      </g>
      <path class="cls-2" d="m269.1,198.56c-7.47,3.76-9.79,3.4-16.07,4.34-6.28.94-11,2.38-16.23,7.96-1.31,1.4-1.89,2.62.16,1.59,7.47-3.76,9.79-3.4,16.07-4.34,6.28-.94,11-2.38,16.23-7.96,1.31-1.4,1.89-2.62-.16-1.59Z"/>
    </g>
  </g>
  <g>
    <path class="cls-1" d="m204.98,488.59c0,1.28-.18,2.46-.53,3.55-.35,1.09-.9,2.04-1.65,2.84s-1.69,1.44-2.84,1.9c-1.15.46-2.52.69-4.11.69h-13.4v-2.71h13.17c2.3,0,4.02-.54,5.17-1.64,1.15-1.09,1.72-2.69,1.72-4.79,0-1.04-.17-1.94-.51-2.68s-.83-1.35-1.48-1.83c-.64-.47-1.41-.82-2.33-1.05-.91-.22-1.94-.34-3.08-.34h-12.66v-2.74h12.58c1.65,0,3.1.23,4.34.69,1.25.46,2.28,1.09,3.11,1.89.83.8,1.45,1.73,1.87,2.8.42,1.07.63,2.2.63,3.4Z"/>
    <path class="cls-1" d="m204.69,475.1h-11.05l-4.74.71v-2.59l2.21-.41c-.76-.73-1.4-1.58-1.9-2.56-.5-.98-.75-2.03-.75-3.15,0-.94.15-1.75.44-2.42.29-.67.7-1.22,1.22-1.65.52-.43,1.14-.75,1.86-.96.72-.21,1.51-.31,2.37-.31h10.34v2.56h-9.78c-.81,0-1.47.09-2,.28-.53.19-.95.44-1.25.75s-.52.69-.65,1.12-.19.88-.19,1.35c0,.75.18,1.55.56,2.4.37.85,1.05,1.62,2.03,2.31h11.28v2.56Z"/>
    <path class="cls-1" d="m205.07,450.77c0,2.45-.72,4.3-2.17,5.54s-3.4,1.86-5.88,1.86c-1.24,0-2.38-.17-3.41-.5-1.04-.33-1.95-.81-2.71-1.43s-1.36-1.38-1.8-2.28-.65-1.93-.65-3.06.21-2.16.62-2.99c.41-.83,1-1.52,1.77-2.05.76-.53,1.69-.92,2.78-1.18,1.09-.25,2.31-.38,3.67-.38v11.25c1.92-.08,3.32-.56,4.2-1.44.88-.89,1.31-2.12,1.31-3.71,0-1.02-.18-1.99-.53-2.9-.35-.91-.88-1.84-1.56-2.78h2.3c.65.86,1.15,1.78,1.52,2.74.37.96.55,2.07.55,3.33Zm-14.37.18c0,.57.08,1.11.23,1.62.16.51.42.96.78,1.35.37.39.85.73,1.44,1,.6.28,1.33.46,2.19.56v-8.45h-.35c-.59.06-1.14.18-1.66.35-.52.18-.97.42-1.37.72-.39.3-.7.69-.93,1.16-.22.47-.34,1.03-.34,1.68Z"/>
    <path class="cls-1" d="m188.9,434.36v-2.33h-2.01c-1,0-1.84-.11-2.52-.34-.67-.23-1.22-.54-1.62-.96-.4-.41-.69-.91-.87-1.49-.18-.58-.27-1.21-.27-1.9,0-1,.13-1.84.38-2.5h2.18c-.2.51-.32.95-.37,1.31s-.07.68-.07.96c0,.71.18,1.28.53,1.72s1,.66,1.94.66h2.68v-3.83h2.12v3.83h13.67v2.53h-13.67v2.33h-2.12Zm-3.21-11.69h-3.3v-2.89h3.3v2.89Zm19-.18h-15.79v-2.56h15.79v2.56Z"/>
    <path class="cls-1" d="m181.77,415.28v-2.56h22.92v2.56h-22.92Z"/>
    <path class="cls-1" d="m185.69,408.24h-3.3v-2.88h3.3v2.88Zm19-.18h-15.79v-2.56h15.79v2.56Z"/>
    <path class="cls-1" d="m202.83,391.74c.71.69,1.26,1.51,1.66,2.46.4.95.6,1.98.6,3.08,0,1.47-.41,2.63-1.22,3.46-.82.84-1.9,1.25-3.25,1.25-1.73,0-2.98-.58-3.74-1.74-.76-1.16-1.15-2.74-1.15-4.74,0-.67.04-1.3.13-1.9.09-.6.19-1.15.31-1.66h-1.74c-.71,0-1.29.09-1.77.28-.47.19-.85.44-1.13.77-.28.32-.49.7-.62,1.13s-.19.9-.19,1.41c0,.43.05.91.15,1.43.1.52.23,1.03.4,1.53.16.5.37.97.6,1.41.23.44.48.81.74,1.1h-2.5c-.51-.71-.92-1.58-1.21-2.61-.3-1.03-.44-2.08-.44-3.14,0-.88.1-1.68.3-2.39s.53-1.31.99-1.83,1.08-.9,1.84-1.18c.76-.27,1.72-.41,2.86-.41h6.75l3.51-.44v2.47l-1.86.24Zm.15,4.77c0-.69-.16-1.46-.48-2.33-.32-.86-.83-1.61-1.52-2.24h-2.86c-.14.49-.25,1.01-.34,1.56-.09.55-.13,1.12-.13,1.71,0,1.53.24,2.62.72,3.25.48.64,1.18.96,2.11.96.86,0,1.5-.28,1.9-.85.4-.57.6-1.26.6-2.06Z"/>
    <path class="cls-1" d="m181.77,384.91v-2.56h22.92v2.56h-22.92Z"/>
    <path class="cls-1" d="m205.07,371.21c0,2.45-.72,4.3-2.17,5.54s-3.4,1.86-5.88,1.86c-1.24,0-2.38-.17-3.41-.5-1.04-.33-1.95-.81-2.71-1.43s-1.36-1.38-1.8-2.28-.65-1.93-.65-3.06.21-2.16.62-2.99c.41-.83,1-1.52,1.77-2.05.76-.53,1.69-.92,2.78-1.18,1.09-.25,2.31-.38,3.67-.38v11.25c1.92-.08,3.32-.56,4.2-1.44.88-.89,1.31-2.12,1.31-3.71,0-1.02-.18-1.99-.53-2.9-.35-.91-.88-1.84-1.56-2.78h2.3c.65.86,1.15,1.78,1.52,2.74.37.96.55,2.07.55,3.33Zm-14.37.18c0,.57.08,1.11.23,1.62.16.51.42.96.78,1.35.37.39.85.73,1.44,1,.6.28,1.33.46,2.19.56v-8.45h-.35c-.59.06-1.14.18-1.66.35-.52.18-.97.42-1.37.72-.39.3-.7.69-.93,1.16-.22.47-.34,1.03-.34,1.68Z"/>
  </g>
  <rect class="cls-1" x="315.93" y="179.74" width="2.52" height="318.29"/>
  <circle class="cls-1" cx="461.24" cy="357.01" r="15.49"/>
</svg>