<?xml version="1.0" encoding="UTF-8"?>
<svg id="Calque_1" data-name="Calque 1" xmlns="http://www.w3.org/2000/svg" viewBox="0 0 1082.51 681.05">
  <defs>
    <style>
      .cls-1 {
        fill: none;
      }

      .cls-2 {
        fill: #fff;
      }

      .cls-3 {
        fill: #65b5e6;
      }

      .cls-4 {
        fill: #25303b;
      }
    </style>
  </defs>
  <g>
    <rect class="cls-3" x="120.27" y="120.63" width="842.25" height="439.78" rx="25.58" ry="25.58"/>
    <g>
      <path class="cls-4" d="m409.6,299.38c-9.03,0-17.11-1.34-24.23-4.02-7.13-2.68-13.16-6.49-18.09-11.43-4.94-4.94-8.71-10.93-11.32-17.99-2.61-7.05-3.92-14.95-3.92-23.7s1.38-16.72,4.13-24.34c2.75-7.62,6.74-14.25,11.96-19.89,5.22-5.64,11.57-10.09,19.05-13.33,7.48-3.24,15.94-4.87,25.4-4.87,6.63,0,12.34.53,17.14,1.59,4.79,1.06,9.24,2.51,13.33,4.34v25.18c-4.52-2.4-9.07-4.13-13.65-5.19-4.59-1.06-9.07-1.59-13.44-1.59-10.02,0-18.17,2.89-24.44,8.68-6.28,5.79-9.42,14.68-9.42,26.67s3.14,20.99,9.42,26.98c6.28,6,15.06,8.99,26.35,8.99,4.09,0,8.22-.49,12.38-1.48,4.16-.98,8.29-2.4,12.38-4.23v22.22c-3.67,2.26-8.15,4.06-13.44,5.4-5.29,1.34-11.82,2.01-19.58,2.01Z"/>
      <path class="cls-4" d="m515.21,300.43c-8.61,0-16.47-1.31-23.6-3.92-7.13-2.61-13.23-6.42-18.31-11.43-5.08-5.01-8.99-11.14-11.75-18.41-2.75-7.26-4.13-15.56-4.13-24.87s1.34-17.11,4.02-24.66c2.68-7.55,6.59-14.11,11.75-19.68,5.15-5.57,11.46-9.91,18.94-13.02,7.48-3.1,15.94-4.66,25.4-4.66,8.6,0,16.43,1.31,23.49,3.92,7.05,2.61,13.09,6.45,18.1,11.53,5.01,5.08,8.89,11.29,11.64,18.62,2.75,7.34,4.13,15.73,4.13,25.18s-1.38,17.53-4.13,25.08c-2.75,7.55-6.67,14-11.75,19.36-5.08,5.36-11.32,9.52-18.73,12.49-7.41,2.96-15.77,4.44-25.08,4.44Zm1.06-23.07c9.45,0,16.79-3.42,22.01-10.26,5.22-6.84,7.83-15.91,7.83-27.19s-2.61-20.03-7.83-26.67c-5.22-6.63-12.42-9.95-21.59-9.95s-16.51,3.32-22.01,9.95c-5.5,6.63-8.25,15.66-8.25,27.09s2.65,19.93,7.94,26.77c5.29,6.84,12.59,10.26,21.9,10.26Z"/>
      <path class="cls-4" d="m743.56,297.47v-66.66c0-9.59-1.9-16.26-5.71-20-3.81-3.74-8.96-5.61-15.45-5.61-4.52,0-8.68,1.13-12.49,3.39-3.81,2.26-7.48,5.86-11.01,10.79v78.09h-28.78v-66.66c0-9.59-1.9-16.26-5.71-20-3.81-3.74-8.96-5.61-15.45-5.61-4.52,0-8.57,1.02-12.17,3.07-3.6,2.05-7.09,5.33-10.48,9.84v79.36h-28.78v-82.11l-4.87-32.38h28.57l2.96,15.03c4.23-5.36,9.21-9.74,14.92-13.12,5.71-3.39,12.73-5.08,21.06-5.08s15.77,1.73,21.9,5.19c6.14,3.46,10.61,8.78,13.44,15.98,4.37-6.21,9.56-11.29,15.56-15.24,6-3.95,13.51-5.93,22.54-5.93,11.71,0,21.09,3.28,28.15,9.84,7.05,6.56,10.58,16.69,10.58,30.37v77.46h-28.78Z"/>
      <path class="cls-4" d="m901.86,182.98v82.11l4.87,32.38h-28.78l-2.96-15.03c-4.66,5.36-10.09,9.7-16.3,13.02-6.21,3.31-13.41,4.97-21.59,4.97-11.71,0-21.13-3.28-28.25-9.84-7.13-6.56-10.69-16.61-10.69-30.16v-77.46h28.99v66.45c0,9.6,1.87,16.3,5.61,20.11,3.74,3.81,8.85,5.71,15.34,5.71,4.51,0,8.85-.99,13.02-2.96,4.16-1.97,8.15-5.22,11.96-9.74v-79.57h28.78Z"/>
      <path class="cls-2" d="m347.59,382.56h18.2l4.44-33.86h23.49v33.86h31.96v21.8h-31.96v51.64c.14,7.62,1.55,12.98,4.23,16.08,2.68,3.11,6.77,4.66,12.27,4.66,3.39,0,6.74-.39,10.05-1.16,3.31-.77,6.31-1.59,8.99-2.43v21.38c-1.41.71-3.17,1.38-5.29,2.01-2.12.63-4.37,1.16-6.77,1.59-2.4.42-4.83.77-7.3,1.06-2.47.28-4.76.42-6.88.42-7.06,0-13.02-.85-17.88-2.54-4.87-1.69-8.78-4.23-11.75-7.62s-5.05-7.58-6.24-12.59c-1.2-5.01-1.8-10.83-1.8-17.46v-55.03h-17.78v-21.8Z"/>
      <path class="cls-2" d="m446.85,497.06v-114.49h28.78v114.49h-28.78Z"/>
      <path class="cls-2" d="m492.77,382.56h18.2l4.44-33.86h23.49v33.86h31.96v21.8h-31.96v51.64c.14,7.62,1.55,12.98,4.23,16.08,2.68,3.11,6.77,4.66,12.27,4.66,3.39,0,6.74-.39,10.05-1.16,3.31-.77,6.31-1.59,8.99-2.43v21.38c-1.41.71-3.17,1.38-5.29,2.01-2.12.63-4.37,1.16-6.77,1.59-2.4.42-4.83.77-7.3,1.06-2.47.28-4.76.42-6.88.42-7.06,0-13.02-.85-17.88-2.54-4.87-1.69-8.78-4.23-11.75-7.62-2.96-3.39-5.05-7.58-6.24-12.59-1.2-5.01-1.8-10.83-1.8-17.46v-55.03h-17.78v-21.8Z"/>
      <path class="cls-2" d="m592.88,497.06v-82.11l-4.87-32.38h28.57l3.18,15.66c4.09-5.64,8.89-10.19,14.39-13.65,5.5-3.46,12.06-5.19,19.68-5.19,2.4,0,4.87.21,7.41.64v26.88c-4.23-.85-8.11-1.27-11.64-1.27-11.29,0-20.6,4.52-27.94,13.54v77.88h-28.78Z"/>
      <path class="cls-2" d="m724.51,499.38c-18.48,0-32.63-5.01-42.43-15.03-9.81-10.02-14.71-24.13-14.71-42.33,0-9.31,1.3-17.81,3.92-25.5,2.61-7.69,6.31-14.25,11.11-19.68,4.79-5.43,10.61-9.66,17.46-12.7,6.84-3.03,14.42-4.55,22.75-4.55,18.34,0,31.71,5.71,40.11,17.14,8.39,11.43,12.59,28.01,12.59,49.73h-78.73c1.13,9.74,4.55,16.86,10.26,21.38,5.71,4.52,13.51,6.77,23.39,6.77,6.77,0,13.72-.95,20.85-2.86,7.12-1.9,14.07-5.11,20.85-9.63v23.28c-6.35,4.52-13.58,7.97-21.69,10.37-8.11,2.4-16.69,3.6-25.71,3.6Zm-2.12-97.56c-6.63,0-12.24,2.08-16.83,6.24-4.59,4.16-7.51,10.9-8.78,20.21h48.25c-.28-3.95-.88-7.55-1.8-10.79-.92-3.24-2.26-6.03-4.02-8.36-1.77-2.33-4.02-4.13-6.77-5.4-2.75-1.27-6.1-1.9-10.05-1.9Z"/>
      <path class="cls-2" d="m833.08,499.6c-7.2,0-14.25-.78-21.16-2.33-6.91-1.55-13.33-3.74-19.26-6.56v-24.97c8.04,3.53,15.45,6.14,22.22,7.83,6.77,1.69,13.61,2.54,20.53,2.54,6.49,0,11.71-.92,15.66-2.75,3.95-1.83,5.93-4.8,5.93-8.89,0-2.54-.88-4.55-2.65-6.03-1.77-1.48-3.95-2.68-6.56-3.6-2.61-.92-5.54-1.62-8.78-2.12-3.25-.49-6.35-1.02-9.31-1.59-5.22-.99-10.13-2.29-14.71-3.92-4.59-1.62-8.57-3.74-11.96-6.35-3.39-2.61-6.07-5.85-8.04-9.74-1.98-3.88-2.96-8.57-2.96-14.07s1.27-10.76,3.81-15.34c2.54-4.58,6-8.53,10.37-11.85,4.37-3.31,9.42-5.85,15.13-7.62,5.71-1.76,11.75-2.65,18.09-2.65,7.33,0,14.6.74,21.8,2.22,7.2,1.48,13.33,3.63,18.41,6.46v24.97c-7.2-3.67-13.9-6.31-20.1-7.94-6.21-1.62-12.14-2.43-17.78-2.43-6.77,0-11.99.99-15.66,2.96-3.67,1.98-5.5,4.8-5.5,8.47,0,2.26.77,4.13,2.33,5.61,1.55,1.48,3.49,2.72,5.82,3.7,2.33.99,4.94,1.8,7.83,2.43,2.89.63,5.75,1.16,8.57,1.59,3.39.57,7.33,1.34,11.85,2.33,4.51.99,8.85,2.65,13.02,4.97,4.16,2.33,7.65,5.58,10.48,9.74,2.82,4.16,4.23,9.7,4.23,16.61,0,6.21-1.45,11.68-4.34,16.4-2.89,4.73-6.7,8.71-11.43,11.96-4.73,3.25-10.19,5.71-16.4,7.41-6.21,1.69-12.7,2.54-19.47,2.54Z"/>
    </g>
    <g>
      <g>
        <path class="cls-2" d="m270.85,354.98h2.08v-.05c-1.61-1.06-2.41-2.58-2.41-4.57,0-.88.18-1.67.55-2.38.37-.71.99-1.21,1.86-1.51-.77-.47-1.36-1.1-1.78-1.87-.42-.78-.63-1.63-.63-2.56,0-.71.08-1.35.23-1.93.16-.57.4-1.07.73-1.48.33-.41.75-.73,1.27-.96.52-.23,1.15-.34,1.87-.34h10.37v2.33h-9.28c-.44,0-.85.04-1.23.11-.38.07-.72.21-1,.41-.28.2-.51.48-.67.83-.16.36-.25.82-.25,1.38,0,1.15.33,2.05.99,2.71.66.66,1.53.99,2.63.99h8.81v2.33h-9.28c-.46,0-.88.04-1.26.12-.38.08-.72.22-1,.42-.28.2-.5.47-.66.81-.15.34-.23.77-.23,1.3,0,.67.14,1.25.41,1.74s.6.88.99,1.18c.38.3.78.52,1.19.66.41.14.75.21,1.03.21h8.81v2.33h-14.15v-2.19Z"/>
        <path class="cls-2" d="m275.02,334.42c-.9-.29-1.69-.73-2.35-1.31-.67-.58-1.19-1.3-1.57-2.16-.38-.86-.57-1.84-.57-2.96s.19-2.12.57-2.97c.38-.85.91-1.56,1.57-2.15.67-.58,1.45-1.02,2.35-1.31.9-.29,1.87-.44,2.91-.44s2.01.15,2.9.44c.89.29,1.67.73,2.34,1.31.67.58,1.19,1.3,1.56,2.15.37.85.56,1.84.56,2.97s-.19,2.1-.56,2.96c-.37.86-.89,1.58-1.56,2.16-.67.58-1.45,1.02-2.34,1.31s-1.86.44-2.9.44-2.01-.15-2.91-.44Zm5.2-2.37c.67-.23,1.22-.54,1.67-.94.45-.4.79-.87,1.03-1.41.24-.54.36-1.11.36-1.71s-.12-1.17-.36-1.71c-.24-.54-.58-1.01-1.03-1.41-.45-.4-1-.72-1.67-.94-.67-.23-1.43-.34-2.29-.34s-1.62.11-2.28.34-1.23.54-1.68.94c-.46.4-.8.87-1.04,1.41-.24.54-.36,1.11-.36,1.71s.12,1.17.36,1.71c.24.54.58,1.01,1.04,1.41.46.4,1.02.72,1.68.94.67.23,1.43.34,2.28.34s1.62-.11,2.29-.34Z"/>
        <path class="cls-2" d="m265.46,316.25h7.31v-.05c-.78-.38-1.35-.99-1.71-1.81-.36-.82-.53-1.72-.53-2.71,0-1.09.2-2.05.6-2.86.4-.81.94-1.49,1.63-2.03.68-.54,1.47-.94,2.37-1.22.89-.27,1.84-.41,2.85-.41s1.95.13,2.85.4c.89.26,1.67.67,2.34,1.2.67.54,1.19,1.21,1.57,2.03.38.81.57,1.76.57,2.83,0,.35-.04.73-.11,1.16-.07.43-.19.85-.36,1.27-.16.42-.39.82-.67,1.19-.28.37-.63.69-1.05.94v.05h1.89v2.33h-19.54v-2.33Zm10.41-8.36c-.63.17-1.19.44-1.68.79-.49.36-.88.81-1.18,1.37-.29.56-.44,1.21-.44,1.96s.16,1.45.47,2c.31.55.72.99,1.22,1.34.5.35,1.07.6,1.71.75.64.16,1.29.23,1.94.23.69,0,1.36-.08,2.01-.25.65-.16,1.22-.42,1.71-.78.49-.36.89-.82,1.19-1.38.3-.57.45-1.25.45-2.05s-.15-1.47-.47-2.01c-.31-.54-.72-.97-1.23-1.3-.51-.33-1.09-.57-1.75-.71-.66-.15-1.33-.22-2.03-.22-.66,0-1.3.09-1.93.26Z"/>
        <path class="cls-2" d="m268.3,302.57h-2.85v-2.33h2.85v2.33Zm2.55-2.33h14.15v2.33h-14.15v-2.33Z"/>
        <path class="cls-2" d="m265.46,294.45h19.54v2.33h-19.54v-2.33Z"/>
        <path class="cls-2" d="m268.3,290.97h-2.85v-2.33h2.85v2.33Zm2.55-2.33h14.15v2.33h-14.15v-2.33Z"/>
        <path class="cls-2" d="m270.85,279.26h2.05v2.82h8.78c.27,0,.49-.02.66-.07.16-.04.29-.13.38-.26.09-.13.15-.3.18-.53.03-.23.04-.52.04-.89v-1.07h2.05v1.78c0,.6-.04,1.12-.12,1.55-.08.43-.23.78-.45,1.04s-.53.46-.93.59c-.4.13-.93.19-1.59.19h-9v2.41h-2.05v-2.41h-4.24v-2.33h4.24v-2.82Z"/>
        <path class="cls-2" d="m284.09,266.94c.8,1.06,1.2,2.39,1.2,4,0,1.13-.18,2.11-.55,2.94-.36.83-.88,1.53-1.53,2.09-.66.57-1.44.99-2.35,1.27-.91.28-1.91.44-2.98.48-1.08,0-2.06-.16-2.96-.49-.89-.33-1.67-.79-2.33-1.38-.66-.59-1.17-1.3-1.53-2.11-.36-.81-.55-1.7-.55-2.67,0-1.26.26-2.3.78-3.13.52-.83,1.18-1.5,1.98-2,.8-.5,1.68-.85,2.63-1.04.95-.19,1.85-.27,2.71-.23v10.59c.62.02,1.21-.05,1.77-.22.56-.16,1.05-.43,1.48-.79.43-.36.77-.83,1.03-1.4.26-.57.38-1.23.38-2,0-.99-.23-1.79-.68-2.42-.46-.63-1.15-1.04-2.08-1.25v-2.3c1.59.31,2.78.99,3.59,2.05Zm-9.09.56c-.49.21-.92.49-1.27.85-.36.36-.64.78-.85,1.26s-.31,1.02-.31,1.6.11,1.15.31,1.63.5.9.86,1.25c.37.35.79.62,1.27.82.48.2,1,.32,1.55.36v-8.13c-.55.04-1.07.16-1.56.37Zm-11.08,2.89l4.43,2.63v-1.75l-4.43-3.86v2.98Z"/>
        <path class="cls-2" d="m281.84,260.76c.36-.22.64-.51.85-.86.21-.36.36-.76.45-1.2.09-.45.14-.91.14-1.38,0-.36-.03-.75-.08-1.15-.05-.4-.15-.77-.3-1.11-.15-.34-.36-.62-.64-.83-.28-.22-.64-.33-1.08-.33-.6,0-1.06.23-1.37.68-.31.46-.56,1.03-.75,1.71-.19.68-.36,1.43-.52,2.23-.15.8-.37,1.55-.66,2.23-.28.68-.68,1.25-1.19,1.71-.51.46-1.22.68-2.13.68-.71,0-1.32-.16-1.83-.48-.51-.32-.93-.73-1.25-1.23-.32-.5-.56-1.07-.71-1.7-.15-.63-.23-1.25-.23-1.87,0-.8.07-1.54.21-2.22.14-.67.37-1.27.71-1.79.34-.52.79-.93,1.37-1.25.57-.31,1.29-.49,2.15-.55v2.33c-.46.04-.83.16-1.14.36-.3.2-.54.46-.73.77-.18.31-.31.65-.4,1.03-.08.37-.12.75-.12,1.14,0,.35.03.7.08,1.05.05.36.15.68.29.97.14.29.32.53.55.71.23.18.53.27.89.27.4,0,.73-.14,1-.42.26-.28.48-.64.66-1.08.17-.44.32-.93.44-1.48.12-.55.24-1.09.37-1.64.13-.58.28-1.15.47-1.71.18-.56.42-1.05.73-1.48.3-.43.68-.77,1.14-1.04.46-.26,1.02-.4,1.7-.4.86,0,1.57.18,2.13.53.57.36,1.02.82,1.37,1.4s.59,1.22.73,1.94c.14.72.21,1.44.21,2.15,0,.78-.08,1.53-.25,2.24-.16.71-.43,1.34-.81,1.89-.37.55-.87.99-1.48,1.31-.61.33-1.35.51-2.23.55v-2.33c.51-.02.94-.14,1.3-.36Z"/>
      </g>
      <g>
        <path class="cls-2" d="m229.9,491.89v6.18l-7.19-5.4v-7.34l7.19-5.41v6.18l-3.87,2.9,3.87,2.9Zm2.71,1.21v-8.21h25.06v8.21h-25.06Z"/>
        <rect class="cls-2" x="223.19" y="472.69" width="34.47" height="8.21"/>
        <path class="cls-2" d="m247.14,462.32c3.43-.15,5.69-2.13,5.69-5.61,0-1.97-.92-3.91-2.76-4.68v-7.68c5.8,1.49,8.31,6.87,8.31,12.46,0,8.16-4.92,13.71-13.32,13.71-7.67,0-13.18-6.13-13.18-13.52,0-8.98,6.76-13.47,15.26-13.09v18.4m-4.58-10.19c-2.81.14-5.12,2.13-5.12,4.88,0,2.89,2.07,4.83,5.12,5.31v-10.19Z"/>
        <path class="cls-2" d="m257.66,424v3.24h-2.66v.08c2.16,1.06,3.12,3.58,3.12,6.28,0,6.06-4.8,9.06-10.35,9.06s-10.24-2.97-10.24-8.99c0-2.01.76-4.9,3.08-6.35v-.08h-10.12v-3.24h27.18m-2.4,9.14c0-4.34-3.72-6.01-7.41-6.01-3.89,0-7.46,1.75-7.46,6.2s3.76,5.9,7.61,5.9,7.26-1.91,7.26-6.09"/>
        <path class="cls-2" d="m251.42,404.13c4.34.87,6.7,3.99,6.7,8.4,0,6.29-4.34,9.26-10.35,9.45-5.9,0-10.24-3.89-10.24-9.26,0-6.96,6.51-9.1,11.27-8.9v14.73c3.43.11,6.46-1.83,6.46-6.13,0-2.66-1.3-4.52-3.84-5.1v-3.2m-5.48,3.12c-3.08.15-5.55,2.47-5.55,5.67,0,3.39,2.54,5.4,5.55,5.63v-11.3Z"/>
        <polygon class="cls-2" points="223.19 401.73 223.19 376.33 230.38 376.33 230.38 392.75 237.43 392.75 237.43 378.55 244.38 378.55 244.38 392.75 257.66 392.75 257.66 401.73 223.19 401.73"/>
        <path class="cls-2" d="m232.6,374.69v-7.97h4.39v-.09c-3.18-1.21-4.88-4-4.88-7.54,0-.62.06-1.29.2-1.93h7.47c-.29,1.06-.48,2.03-.48,3.14,0,4.05,2.8,6.19,5.95,6.19h12.4v8.2h-25.06Z"/>
        <path class="cls-2" d="m240.32,357.17c-3.27-.15-5.41-1.69-6.72-3.9-1.24-2.22-1.73-5.11-1.73-7.97,0-5.94,1.31-11.69,8.4-11.69h10.96c2.12,0,4.44,0,6.42-.97v8.26c-.78.29-1.55.39-2.37.48,2.22,2.12,3.08,5.26,3.08,8.26,0,4.78-2.41,8.54-7.58,8.54-8.15,0-7.52-8.88-8.68-14.58-.29-1.4-.77-2.17-2.32-2.17-1.88,0-2.6,2.26-2.6,3.95,0,2.27,1.02,3.72,3.13,4.1v7.67m12.99-10.62c0-3.9-2.22-5.21-7.39-5.02.72,1.16.87,3.28,1.35,5.07.43,1.83,1.21,3.38,3.19,3.38s2.85-1.58,2.85-3.43"/>
        <path class="cls-2" d="m232.6,330.62v-7.97h3.43v-.11c-2.56-1.49-4.16-4.87-4.16-7.86,0-8.35,6.09-9.03,9.7-9.03h16.08v8.2h-12.12c-3.43,0-6.9-.38-6.9,4.11,0,3.09,2.6,4.44,5.35,4.44h13.67v8.22h-25.06Z"/>
        <path class="cls-2" d="m241.78,286.29c-2.12.05-3.62,1.94-3.62,4.01,0,4.59,3.91,5.31,7.39,5.31,3.24,0,6.56-1.4,6.56-4.87,0-2.84-1.64-4.31-4.29-4.68v-7.97c6.71.72,10.56,5.93,10.56,12.6,0,7.52-5.16,13.14-12.84,13.14s-13.66-5.07-13.66-13.14c0-6.23,3.28-11.79,9.9-12.36v7.96Z"/>
        <path class="cls-2" d="m247.14,269.39c3.43-.15,5.69-2.13,5.69-5.61,0-1.97-.92-3.91-2.76-4.67v-7.69c5.8,1.51,8.31,6.87,8.31,12.47,0,8.15-4.92,13.71-13.32,13.71-7.67,0-13.18-6.14-13.18-13.52,0-8.99,6.76-13.48,15.26-13.09v18.39m-4.58-10.19c-2.81.14-5.12,2.12-5.12,4.88,0,2.9,2.07,4.82,5.12,5.31v-10.19Z"/>
      </g>
      <g>
        <rect class="cls-2" x="223.19" y="179.71" width="61.81" height="61.81" rx="14.06" ry="14.06"/>
        <g>
          <path class="cls-3" d="m257.87,195.52c-1.47,3.16-4.68,4.8-7.17,3.64-2.49-1.16-3.32-4.66-1.86-7.82,1.47-3.17,4.68-4.8,7.17-3.64,2.49,1.16,3.32,4.66,1.86,7.82"/>
          <path class="cls-3" d="m261.95,216.58c-5.32-7.39-11.81-3.62-16.19,2.31-3.45,4.67-6.38,8.74-10,13.68-.84,1.15-.19,1.56.98.85,1.17-.7,2.3-1.73,3.4-3.24,1.49-2.04,5.23-7.13,7.57-10.35,2.1-2.89,5.23-2.6,7.39.39,2.5,3.46,5.59,7.79,8.33,11.54,1.9,2.6,7.63,2.2,10.13,2.02.45-.03.59-.36.37-.66-1.57-2.16-7.04-9.69-11.98-16.55Z"/>
        </g>
        <path class="cls-3" d="m269.06,198.54c-7.47,3.76-9.79,3.4-16.07,4.34-6.28.94-11,2.38-16.23,7.96-1.31,1.4-1.89,2.63.16,1.59,7.47-3.76,9.79-3.4,16.07-4.34,6.28-.94,11-2.38,16.23-7.96,1.31-1.4,1.89-2.63-.16-1.59Z"/>
      </g>
    </g>
    <g>
      <path class="cls-2" d="m204.93,488.63c0,1.28-.18,2.46-.53,3.55-.35,1.09-.9,2.04-1.65,2.84-.75.81-1.69,1.44-2.84,1.9-1.15.46-2.52.69-4.11.69h-13.4v-2.71h13.17c2.3,0,4.02-.54,5.17-1.64,1.15-1.09,1.72-2.69,1.72-4.79,0-1.04-.17-1.94-.51-2.68s-.83-1.35-1.48-1.83c-.64-.47-1.41-.82-2.33-1.05-.91-.22-1.94-.34-3.08-.34h-12.67v-2.74h12.58c1.65,0,3.1.23,4.34.69,1.25.46,2.28,1.09,3.11,1.89.83.8,1.45,1.73,1.87,2.8.42,1.07.63,2.21.63,3.4Z"/>
      <path class="cls-2" d="m204.63,475.14h-11.05l-4.74.71v-2.59l2.21-.41c-.76-.73-1.4-1.58-1.9-2.56s-.75-2.03-.75-3.15c0-.94.15-1.75.44-2.42.29-.67.7-1.22,1.22-1.65.52-.43,1.14-.75,1.86-.96.72-.21,1.51-.31,2.37-.31h10.34v2.56h-9.78c-.81,0-1.47.09-2,.28-.53.19-.95.44-1.25.75-.3.31-.52.69-.65,1.12s-.19.88-.19,1.35c0,.75.18,1.55.56,2.4.37.85,1.05,1.62,2.03,2.31h11.29v2.56Z"/>
      <path class="cls-2" d="m205.02,450.81c0,2.45-.72,4.3-2.17,5.54-1.44,1.24-3.4,1.86-5.88,1.86-1.24,0-2.38-.17-3.42-.5-1.04-.33-1.95-.81-2.71-1.43-.76-.62-1.36-1.38-1.8-2.28-.43-.9-.65-1.93-.65-3.06s.21-2.16.62-2.99c.41-.83,1-1.52,1.77-2.05.76-.53,1.69-.92,2.78-1.18s2.31-.38,3.67-.38v11.25c1.92-.08,3.32-.56,4.2-1.44.88-.89,1.31-2.12,1.31-3.71,0-1.02-.18-1.99-.53-2.9-.35-.91-.88-1.84-1.56-2.78h2.3c.65.87,1.15,1.78,1.52,2.74.37.96.55,2.07.55,3.33Zm-14.38.18c0,.57.08,1.11.23,1.62.16.51.42.96.78,1.35.37.39.85.73,1.44,1,.6.28,1.33.46,2.19.56v-8.45h-.35c-.59.06-1.14.18-1.66.35-.52.18-.97.42-1.37.72-.39.3-.7.69-.93,1.16-.22.47-.34,1.03-.34,1.68Z"/>
      <path class="cls-2" d="m188.84,434.4v-2.33h-2.01c-1,0-1.84-.11-2.52-.34-.67-.23-1.22-.54-1.62-.96-.4-.41-.69-.91-.87-1.49-.18-.58-.27-1.21-.27-1.9,0-1,.13-1.84.38-2.51h2.18c-.2.51-.32.95-.37,1.31s-.07.68-.07.96c0,.71.18,1.28.53,1.72s1,.66,1.94.66h2.68v-3.83h2.12v3.83h13.67v2.53h-13.67v2.33h-2.12Zm-3.21-11.7h-3.3v-2.89h3.3v2.89Zm19.01-.18h-15.79v-2.56h15.79v2.56Z"/>
      <path class="cls-2" d="m181.71,415.3v-2.56h22.92v2.56h-22.92Z"/>
      <path class="cls-2" d="m185.63,408.26h-3.3v-2.89h3.3v2.89Zm19.01-.18h-15.79v-2.56h15.79v2.56Z"/>
      <path class="cls-2" d="m202.78,391.77c.71.69,1.26,1.51,1.66,2.46.4.95.6,1.98.6,3.08,0,1.47-.41,2.63-1.22,3.46-.82.84-1.9,1.25-3.26,1.25-1.73,0-2.98-.58-3.74-1.74-.76-1.16-1.15-2.74-1.15-4.74,0-.67.04-1.3.13-1.9.09-.6.19-1.15.31-1.66h-1.74c-.71,0-1.29.09-1.77.28-.47.19-.85.44-1.13.77-.28.32-.49.7-.62,1.13s-.19.9-.19,1.41c0,.43.05.91.15,1.43.1.52.23,1.03.4,1.53.16.5.37.97.6,1.41.23.44.48.81.74,1.1h-2.5c-.51-.71-.92-1.58-1.21-2.61-.3-1.03-.44-2.08-.44-3.14,0-.88.1-1.68.3-2.39s.53-1.32.99-1.83c.46-.51,1.08-.9,1.84-1.18.76-.27,1.72-.41,2.86-.41h6.75l3.51-.44v2.47l-1.86.24Zm.15,4.77c0-.69-.16-1.46-.49-2.33-.32-.87-.83-1.61-1.52-2.24h-2.86c-.14.49-.25,1.01-.34,1.56-.09.55-.13,1.12-.13,1.71,0,1.53.24,2.62.72,3.26.48.64,1.18.96,2.11.96.86,0,1.5-.28,1.9-.85.4-.57.6-1.26.6-2.06Z"/>
      <path class="cls-2" d="m181.71,384.93v-2.56h22.92v2.56h-22.92Z"/>
      <path class="cls-2" d="m205.02,371.23c0,2.45-.72,4.3-2.17,5.54-1.44,1.24-3.4,1.86-5.88,1.86-1.24,0-2.38-.17-3.42-.5-1.04-.33-1.95-.81-2.71-1.43s-1.36-1.38-1.8-2.28-.65-1.93-.65-3.06.21-2.16.62-2.99c.41-.83,1-1.52,1.77-2.05.76-.53,1.69-.92,2.78-1.18,1.09-.25,2.31-.38,3.67-.38v11.25c1.92-.08,3.32-.56,4.2-1.44.88-.89,1.31-2.12,1.31-3.71,0-1.02-.18-1.99-.53-2.9-.35-.91-.88-1.84-1.56-2.78h2.3c.65.87,1.15,1.78,1.52,2.74.37.96.55,2.07.55,3.33Zm-14.38.18c0,.57.08,1.11.23,1.62.16.51.42.96.78,1.35.37.39.85.73,1.44,1,.6.28,1.33.46,2.19.56v-8.45h-.35c-.59.06-1.14.18-1.66.35-.52.18-.97.42-1.37.72-.39.3-.7.69-.93,1.16-.22.47-.34,1.03-.34,1.68Z"/>
    </g>
    <rect class="cls-2" x="316.02" y="179.71" width="2.27" height="318.36"/>
    <circle class="cls-4" cx="461.24" cy="357.02" r="15.49"/>
  </g>
  <path class="cls-1" d="m528.33,120.63c-8.61,0-16.47-1.31-23.6-3.92-7.13-2.61-13.23-6.42-18.31-11.43-5.08-5.01-8.99-11.14-11.75-18.41-2.75-7.26-4.13-15.56-4.13-24.87s1.34-17.11,4.02-24.66c2.68-7.55,6.59-14.11,11.75-19.68,5.15-5.57,11.46-9.91,18.94-13.02,7.48-3.1,15.94-4.66,25.4-4.66,8.6,0,16.43,1.31,23.49,3.92,7.05,2.61,13.09,6.45,18.1,11.53,5.01,5.08,8.89,11.29,11.64,18.62,2.75,7.34,4.13,15.73,4.13,25.18s-1.38,17.53-4.13,25.08c-2.75,7.55-6.67,14-11.75,19.36-5.08,5.36-11.32,9.52-18.73,12.49-7.41,2.96-15.77,4.44-25.08,4.44Zm1.06-23.07c9.45,0,16.79-3.42,22.01-10.26,5.22-6.84,7.83-15.91,7.83-27.19s-2.61-20.03-7.83-26.67c-5.22-6.63-12.42-9.95-21.59-9.95s-16.51,3.32-22.01,9.95c-5.5,6.63-8.25,15.66-8.25,27.09s2.65,19.93,7.94,26.77c5.29,6.84,12.59,10.26,21.9,10.26Z"/>
  <path class="cls-1" d="m580.58,681.05c-8.61,0-16.47-1.31-23.6-3.92-7.13-2.61-13.23-6.42-18.31-11.43-5.08-5.01-8.99-11.14-11.75-18.41-2.75-7.26-4.13-15.56-4.13-24.87s1.34-17.11,4.02-24.66c2.68-7.55,6.59-14.11,11.75-19.68,5.15-5.57,11.46-9.91,18.94-13.02,7.48-3.1,15.94-4.66,25.4-4.66,8.6,0,16.43,1.31,23.49,3.92,7.05,2.61,13.09,6.45,18.1,11.53,5.01,5.08,8.89,11.29,11.64,18.62,2.75,7.34,4.13,15.73,4.13,25.18s-1.38,17.53-4.13,25.08c-2.75,7.55-6.67,14-11.75,19.36-5.08,5.36-11.32,9.52-18.73,12.49-7.41,2.96-15.77,4.44-25.08,4.44Zm1.06-23.07c9.45,0,16.79-3.42,22.01-10.26,5.22-6.84,7.83-15.91,7.83-27.19s-2.61-20.03-7.83-26.67c-5.22-6.63-12.42-9.95-21.59-9.95s-16.51,3.32-22.01,9.95c-5.5,6.63-8.25,15.66-8.25,27.09s2.65,19.93,7.94,26.77c5.29,6.84,12.59,10.26,21.9,10.26Z"/>
  <path class="cls-1" d="m1083.15,359.14c0,8.61-1.31,16.47-3.92,23.6-2.61,7.13-6.42,13.23-11.43,18.31-5.01,5.08-11.14,8.99-18.41,11.75-7.26,2.75-15.56,4.13-24.87,4.13s-17.11-1.34-24.66-4.02c-7.55-2.68-14.11-6.59-19.68-11.75-5.57-5.15-9.91-11.46-13.02-18.94-3.1-7.48-4.66-15.94-4.66-25.4,0-8.6,1.31-16.43,3.92-23.49,2.61-7.05,6.45-13.09,11.53-18.1,5.08-5.01,11.29-8.89,18.62-11.64,7.34-2.75,15.73-4.13,25.18-4.13s17.53,1.38,25.08,4.13c7.55,2.75,14,6.67,19.36,11.75,5.36,5.08,9.52,11.32,12.49,18.73,2.96,7.41,4.44,15.77,4.44,25.08Zm-23.07-1.06c0-9.45-3.42-16.79-10.26-22.01-6.84-5.22-15.91-7.83-27.19-7.83s-20.03,2.61-26.67,7.83c-6.63,5.22-9.95,12.42-9.95,21.59s3.32,16.51,9.95,22.01c6.63,5.5,15.66,8.25,27.09,8.25s19.93-2.65,26.77-7.94c6.84-5.29,10.26-12.59,10.26-21.9Z"/>
  <path class="cls-1" d="m120.63,335.81c0,8.61-1.31,16.47-3.92,23.6-2.61,7.13-6.42,13.23-11.43,18.31-5.01,5.08-11.14,8.99-18.41,11.75-7.26,2.75-15.56,4.13-24.87,4.13s-17.11-1.34-24.66-4.02c-7.55-2.68-14.11-6.59-19.68-11.75-5.57-5.15-9.91-11.46-13.02-18.94-3.1-7.48-4.66-15.94-4.66-25.4,0-8.6,1.31-16.43,3.92-23.49,2.61-7.05,6.45-13.09,11.53-18.1,5.08-5.01,11.29-8.89,18.62-11.64,7.34-2.75,15.73-4.13,25.18-4.13s17.53,1.38,25.08,4.13c7.55,2.75,14,6.67,19.36,11.75,5.36,5.08,9.52,11.32,12.49,18.73,2.96,7.41,4.44,15.77,4.44,25.08Zm-23.07-1.06c0-9.45-3.42-16.79-10.26-22.01-6.84-5.22-15.91-7.83-27.19-7.83s-20.03,2.61-26.67,7.83c-6.63,5.22-9.95,12.42-9.95,21.59s3.32,16.51,9.95,22.01c6.63,5.5,15.66,8.25,27.09,8.25s19.93-2.65,26.77-7.94c6.84-5.29,10.26-12.59,10.26-21.9Z"/>
</svg>